<svg width="436" height="800" viewBox="0 0 436 800" fill="none" xmlns="http://www.w3.org/2000/svg">
<path d="M411.785 379.556V420.445C411.81 482.434 411.81 541.853 411.81 565.053C411.81 620.371 369.907 621.013 367.992 621.013H367.918C366.362 663.546 331.785 665.819 324.398 665.819C323.508 665.819 323.014 665.794 323.014 665.794C323.014 665.794 320.16 707.573 270.821 724.485C241.284 736.282 217.591 764.065 217.591 764.065C217.591 764.065 193.897 736.282 164.36 724.485C115.021 707.561 112.168 665.794 112.168 665.794C112.168 665.794 111.674 665.819 110.784 665.819C103.397 665.819 68.8446 663.558 67.2634 621.013H67.2141C65.2623 621.013 23.3721 620.371 23.3721 565.053C23.3721 541.853 23.3721 482.446 23.3968 420.445V379.556C23.3721 317.567 23.3721 258.147 23.3721 234.948C23.3721 179.63 65.2746 178.987 67.2141 178.987H67.2634C68.8446 136.455 103.397 134.157 110.784 134.157C111.674 134.157 112.168 134.207 112.168 134.207C112.168 134.207 115.021 92.4277 164.36 75.516C193.897 63.7186 217.591 35.936 217.591 35.936C217.591 35.936 241.284 63.7186 270.821 75.516C320.16 92.4401 323.014 134.207 323.014 134.207C323.014 134.207 323.508 134.157 324.398 134.157C331.785 134.157 366.362 136.443 367.918 178.987H367.992C369.919 178.987 411.81 179.63 411.81 234.948C411.81 258.147 411.81 317.554 411.785 379.556Z" fill="#033545"/>
<path d="M435.182 379.555C435.207 317.566 435.207 258.147 435.207 234.948C435.207 182.261 404.077 164.731 388.61 159.259C382.31 135.442 365.386 118.691 341.742 112.885C335.615 95.9852 319.555 67.6838 279.135 53.6257C255.837 44.1631 235.615 20.9636 235.417 20.7412L217.653 0L199.839 20.7165C199.642 20.9389 179.444 44.1384 156.269 53.5763C115.676 67.6838 99.6171 95.9852 93.4652 112.885C69.8456 118.703 52.9216 135.442 46.6214 159.259C31.1303 164.731 0 182.261 0 234.948C0 258.147 2.41281e-05 317.554 0.0247307 379.555V420.42C2.41281e-05 482.434 0 541.853 0 565.053C0 604.163 17.2453 623.743 31.6986 633.305C36.2817 636.331 41.2847 638.802 46.5966 640.642C52.8721 664.509 69.8209 681.31 93.4652 687.116C99.6171 704.015 115.676 732.316 156.096 746.374C179.444 755.862 199.642 779.061 199.839 779.284L217.579 800L235.392 779.284C235.59 779.061 255.787 755.862 278.962 746.424C319.555 732.316 335.615 704.015 341.742 687.116C365.386 681.297 382.31 664.558 388.61 640.717C404.077 635.269 435.207 617.739 435.207 565.053C435.207 541.853 435.207 482.446 435.182 420.445V379.555ZM419.197 565.053C419.197 614.318 388.808 625.275 374.812 627.709C371.093 658.592 349.388 671.254 329.314 672.983C326.288 686.584 314.96 717.097 273.403 731.402C246.065 742.384 223.459 768.598 223.237 768.845L217.591 775.442L211.97 768.87C211.748 768.598 189.141 742.397 161.804 731.402C120.247 717.097 108.919 686.572 105.893 672.983C85.8184 671.254 64.089 658.604 60.3953 627.709C46.399 625.275 15.9851 614.305 15.9851 565.053C15.9851 541.853 15.9851 482.446 16.0098 420.445V379.555C15.9851 317.566 15.9851 258.147 15.9851 234.948C15.9851 185.658 46.399 174.725 60.3953 172.292C64.089 141.408 85.8184 128.746 105.893 126.992C108.919 113.416 120.247 82.903 161.804 68.5979C175.479 63.076 187.956 53.7986 197.048 45.8431C206.164 37.8876 211.847 31.2662 211.97 31.1427L217.591 24.5707L223.212 31.1427C223.459 31.4145 246.065 57.5911 273.403 68.6103C314.96 82.9154 326.288 113.44 329.314 127.004C349.388 128.758 371.093 141.408 374.812 172.304C388.796 174.738 419.197 185.683 419.197 234.96C419.197 258.159 419.197 317.566 419.172 379.568V420.457C419.197 482.446 419.197 541.865 419.197 565.065V565.053Z" fill="#B1C2C8"/>
</svg>
