<svg width="198" height="216" viewBox="0 0 198 216" fill="none" xmlns="http://www.w3.org/2000/svg">
<rect x="0.505859" y="0.506378" width="197" height="215.143" rx="12.2655" fill="#02232E"/>
<rect x="169.722" y="37.1339" width="4.77808" height="92.3125" fill="#4ADBC8"/>
<rect x="159.21" y="37.1339" width="4.77808" height="92.3125" fill="#4ADBC8"/>
<path d="M55.0479 107.467H59.8259V124.668H65.5596V115.112H70.3377V124.668H76.0714V115.112H80.8495V124.668H86.5832V115.112H91.3612V129.446H86.5832H80.8495H76.0714H70.3377H65.5596H59.8259H55.0479V107.467Z" fill="#4ADBC8"/>
<path d="M70.9111 107.467H75.6891V112.245H70.9111V107.467Z" fill="#EDFBFA"/>
<path d="M76.0714 99.8223H80.8495V104.6H76.0714V99.8223Z" fill="#EDFBFA"/>
<path d="M81.2317 107.467H86.0098V112.245H81.2317V107.467Z" fill="#EDFBFA"/>
<path d="M148.698 98.8666H153.476V103.645H148.698V98.8666Z" fill="#EDFBFA"/>
<path d="M148.698 106.512H153.476V124.668H159.21V129.446H153.476H148.698V106.512Z" fill="#4ADBC8"/>
<path d="M127.674 124.668H132.452V129.446H127.674V124.668Z" fill="#EDFBFA"/>
<path d="M138.186 115.112H142.964V124.668H148.698V129.446H142.964H138.186V119.89H121.941V129.446H117.163H97.0947V98.8666H101.873V124.668H117.163V119.89H107.606V115.112H117.163H121.941H138.186Z" fill="#4ADBC8"/>
<path d="M34.0245 107.467H38.8025H55.048V112.245H38.8025V129.446H34.0245H28.2908H23.5127V98.8666H28.2908V124.668H34.0245V107.467Z" fill="#4ADBC8"/>
<path d="M44.5362 117.023H49.3143V121.801H44.5362V117.023Z" fill="#EDFBFA"/>
<path d="M44.5362 124.668H49.3143V129.446H44.5362V124.668Z" fill="#EDFBFA"/>
<path d="M159.21 34.2671C159.21 30.3686 162.128 27.1516 165.899 26.6813C166.212 26.6423 166.531 26.6222 166.855 26.6222C167.179 26.6222 167.497 26.6423 167.811 26.6813C171.582 27.1516 174.5 30.3686 174.5 34.2671H159.21Z" fill="#F7EDF0"/>
<path d="M166.95 23.3731C166.983 23.3731 167.014 23.372 167.046 23.37C167.793 23.3208 168.384 22.6992 168.384 21.9397C168.384 21.8733 168.284 21.8623 168.25 21.9192C168.177 22.0402 168.077 22.143 167.959 22.2198C167.84 22.2966 167.705 22.3454 167.565 22.3625C167.425 22.3796 167.282 22.3645 167.149 22.3184C167.015 22.2723 166.894 22.1964 166.794 22.0965C166.694 21.9965 166.618 21.8751 166.572 21.7414C166.526 21.6078 166.511 21.4654 166.528 21.3251C166.545 21.1847 166.593 21.0501 166.67 20.9314C166.747 20.8127 166.85 20.7131 166.971 20.64C167.028 20.6056 167.017 20.5063 166.95 20.5063C166.159 20.5063 165.517 21.148 165.517 21.9397C165.517 22.6332 166.009 23.2116 166.664 23.3444C166.695 23.3508 166.727 23.3562 166.759 23.3605C166.791 23.3647 166.823 23.3679 166.855 23.37C166.886 23.372 166.918 23.3731 166.95 23.3731Z" fill="#F7EDF0"/>
<path d="M166.95 23.3731C166.918 23.3731 166.886 23.372 166.855 23.37C166.823 23.3679 166.791 23.3647 166.759 23.3605C166.727 23.3562 166.695 23.3508 166.664 23.3444V25.0932H166.759H166.855H166.95H167.046V23.37C167.014 23.372 166.983 23.3731 166.95 23.3731Z" fill="#4ADBC8"/>
<path d="M166.282 25.0932C166.07 25.0932 165.899 25.2643 165.899 25.4755V26.6813H167.811V25.4755C167.811 25.2643 167.639 25.0932 167.428 25.0932H167.046H166.95H166.855H166.759H166.664H166.282Z" fill="#4ADBC8"/>
<path fill-rule="evenodd" clip-rule="evenodd" d="M48.3415 78.7988C52.5931 66.1683 66.2071 41.893 81.5876 37.2144C83.8087 36.4865 86.1295 36.0996 88.5266 36.0996C90.9236 36.0996 93.2566 36.4865 95.4776 37.2144C109.466 41.3235 123.744 65.9279 128.613 78.7988H123.652C118.015 65.86 106.38 45.6277 95.0126 41.9924C92.9723 41.2646 90.8293 40.8777 88.6273 40.8777C86.4254 40.8777 84.2934 41.2646 82.2531 41.9924C69.782 46.1222 58.5753 66.0865 53.4315 78.7988H48.3415Z" fill="#4ADBC8"/>
<path d="M129.586 81.6657H124.808V89.3106H129.586V81.6657Z" fill="#F7EDF0"/>
<path d="M120.03 89.3106V81.6657H115.252V89.3106H120.03Z" fill="#F7EDF0"/>
<path d="M110.474 89.3106V81.6657H105.696V89.3106H110.474Z" fill="#F7EDF0"/>
<path d="M83.7165 89.3106H88.4945V94.0887H83.7165V89.3106Z" fill="#F7EDF0"/>
<path fill-rule="evenodd" clip-rule="evenodd" d="M31.1576 74.0208L41.6694 81.6657V86.4438V89.3106H72.2491V86.4438H47.4031V81.6657H72.2491L82.7609 74.0208H89.4502L99.9619 81.6657V89.3106H105.696H110.474H115.252H120.03H124.808H129.586H135.32V81.6657L145.831 74.0208H153.476V94.0887H135.32H95.1839V83.1947L88.6857 78.7988H83.5253L77.0272 83.1947V94.0887H41.6694H23.5127V89.3106H28.2908H31.1576H36.8913V83.1947L30.3931 78.7988H28.2908V74.0208H31.1576ZM146.596 78.7988L140.098 83.1947V89.3106H148.698V78.7988H146.596Z" fill="#F7EDF0"/>
<path d="M88.5903 27.8643C88.6544 27.8643 88.7182 27.8627 88.7815 27.8594C88.8456 27.856 88.9093 27.851 88.9726 27.8444C90.7985 27.6524 92.2217 26.1009 92.2217 24.2153C92.2217 24.0463 91.9696 24.0182 91.8829 24.1631C91.6977 24.4712 91.4453 24.7329 91.1446 24.9284C90.8439 25.124 90.5029 25.2482 90.1474 25.2917C89.7919 25.3352 89.4312 25.2968 89.0926 25.1794C88.754 25.0621 88.4464 24.8688 88.1932 24.6144C87.9399 24.3599 87.7476 24.0508 87.6308 23.7106C87.5141 23.3703 87.4759 23.0079 87.5191 22.6506C87.5624 22.2933 87.686 21.9506 87.8806 21.6485C88.0752 21.3463 88.3357 21.0926 88.6423 20.9066C88.7864 20.819 88.7585 20.5662 88.5903 20.5662C86.5847 20.5662 84.959 22.1999 84.959 24.2153C84.959 26.1009 86.3822 27.6524 88.2081 27.8444C88.2713 27.851 88.335 27.856 88.3992 27.8594C88.4625 27.8627 88.5262 27.8643 88.5903 27.8643Z" fill="#F7EDF0"/>
<path d="M88.5903 27.8643C88.5262 27.8643 88.4625 27.8627 88.3992 27.8594V30.9933H88.7815V27.8594C88.7182 27.8627 88.6544 27.8643 88.5903 27.8643Z" fill="#4ADBC8"/>
<path d="M87.8659 30.9933C87.4468 30.9933 87.107 31.3359 87.107 31.7584C87.107 32.1809 87.4468 32.5234 87.8659 32.5234H88.2081H88.3992H88.7815H88.9726H89.3839C89.8031 32.5234 90.1429 32.1809 90.1429 31.7584C90.1429 31.3359 89.8031 30.9933 89.3839 30.9933H88.9726H88.7815H88.3992H88.2081H87.8659Z" fill="#F7EDF0"/>
<path d="M88.7815 32.5234H88.3992V36.1123H88.7814L88.7815 32.5234Z" fill="#4ADBC8"/>
<path d="M88.7815 32.5234L88.7814 36.1123H88.9726V32.5234H88.7815Z" fill="#4ADBC8"/>
<path d="M88.3992 36.1123V32.5234H88.2081V36.1123H88.3992Z" fill="#4ADBC8"/>
<path d="M88.3992 30.9933V27.8594C88.335 27.856 88.2713 27.851 88.2081 27.8444V30.9933H88.3992Z" fill="#4ADBC8"/>
<path d="M88.7815 27.8594V30.9933H88.9726V27.8444C88.9093 27.851 88.8456 27.856 88.7815 27.8594Z" fill="#4ADBC8"/>
<path d="M30.2692 147.183C31.8555 147.183 33.2374 147.494 34.4149 148.115C35.5924 148.737 36.5082 149.652 37.1624 150.863C37.8166 152.073 38.1436 153.537 38.1436 155.254V164.649H34.1696V160.528H26.3197V164.649H22.3947V155.254C22.3947 153.537 22.7218 152.073 23.376 150.863C24.0301 149.652 24.946 148.737 26.1235 148.115C27.3009 147.494 28.6829 147.183 30.2692 147.183ZM34.1696 157.339V154.886C34.1696 153.463 33.818 152.392 33.1148 151.672C32.4116 150.936 31.4549 150.568 30.2447 150.568C29.0181 150.568 28.0532 150.936 27.35 151.672C26.6631 152.392 26.3197 153.463 26.3197 154.886V157.339H34.1696ZM49.2292 164.845C47.741 164.845 46.5798 164.453 45.7458 163.668C44.9117 162.866 44.4947 161.738 44.4947 160.283V146.447H48.3215V160.062C48.3215 160.618 48.4605 161.051 48.7385 161.362C49.0329 161.656 49.4418 161.803 49.9651 161.803C50.1613 161.803 50.3576 161.779 50.5538 161.73C50.7664 161.681 50.93 161.624 51.0445 161.558L51.2162 164.526C50.5784 164.739 49.916 164.845 49.2292 164.845ZM74.8098 147.183C76.8541 147.183 78.4486 147.829 79.5934 149.121C80.7382 150.397 81.3105 152.22 81.3105 154.591V164.649H77.3365V154.714C77.3365 153.34 77.0094 152.31 76.3553 151.623C75.7175 150.92 74.8262 150.568 73.6814 150.568C72.4712 150.568 71.4981 150.944 70.7622 151.697C70.0426 152.433 69.6828 153.528 69.6828 154.984V164.649H65.7088V147.477H69.5602V149.563C70.1489 148.778 70.8849 148.189 71.768 147.796C72.6511 147.387 73.665 147.183 74.8098 147.183ZM94.3095 161.779C94.9963 161.779 95.6014 161.681 96.1248 161.485C96.6645 161.272 97.1633 160.945 97.6212 160.503L99.6572 162.711C98.4143 164.134 96.599 164.845 94.2114 164.845C92.7231 164.845 91.4066 164.559 90.2619 163.987C89.1171 163.398 88.234 162.588 87.6125 161.558C86.9911 160.528 86.6803 159.359 86.6803 158.05C86.6803 156.758 86.9829 155.597 87.588 154.567C88.2094 153.52 89.0517 152.711 90.1147 152.138C91.194 151.55 92.4042 151.255 93.7453 151.255C95.0045 151.255 96.1493 151.525 97.1796 152.065C98.2099 152.588 99.0276 153.357 99.6327 154.371C100.254 155.368 100.565 156.554 100.565 157.928L90.8015 159.816C91.0796 160.471 91.5129 160.961 92.1017 161.288C92.7068 161.615 93.4427 161.779 94.3095 161.779ZM93.7453 154.15C92.7804 154.15 91.9954 154.461 91.3903 155.082C90.7852 155.703 90.4663 156.562 90.4336 157.658L96.8607 156.407C96.6808 155.72 96.3128 155.172 95.7568 154.763C95.2008 154.354 94.5303 154.15 93.7453 154.15ZM104.854 169.604C103.513 169.604 102.491 169.359 101.788 168.868L102.818 166.096C103.26 166.407 103.8 166.562 104.437 166.562C104.928 166.562 105.312 166.399 105.59 166.072C105.868 165.761 106.007 165.287 106.007 164.649V151.451H109.834V164.625C109.834 166.162 109.393 167.372 108.509 168.255C107.643 169.155 106.424 169.604 104.854 169.604ZM107.921 149.612C107.218 149.612 106.645 149.407 106.204 148.998C105.762 148.589 105.541 148.082 105.541 147.477C105.541 146.872 105.762 146.365 106.204 145.956C106.645 145.548 107.218 145.343 107.921 145.343C108.624 145.343 109.196 145.539 109.638 145.932C110.079 146.324 110.3 146.815 110.3 147.404C110.3 148.042 110.079 148.573 109.638 148.998C109.196 149.407 108.624 149.612 107.921 149.612ZM129.45 151.451V164.649H125.795V163.128C124.846 164.273 123.473 164.845 121.674 164.845C120.431 164.845 119.302 164.567 118.289 164.011C117.291 163.455 116.506 162.662 115.934 161.632C115.361 160.601 115.075 159.408 115.075 158.05C115.075 156.693 115.361 155.499 115.934 154.469C116.506 153.438 117.291 152.645 118.289 152.089C119.302 151.533 120.431 151.255 121.674 151.255C123.358 151.255 124.675 151.787 125.623 152.85V151.451H129.45ZM122.336 161.705C123.301 161.705 124.102 161.378 124.74 160.724C125.378 160.054 125.697 159.162 125.697 158.05C125.697 156.938 125.378 156.055 124.74 155.401C124.102 154.73 123.301 154.395 122.336 154.395C121.355 154.395 120.545 154.73 119.908 155.401C119.27 156.055 118.951 156.938 118.951 158.05C118.951 159.162 119.27 160.054 119.908 160.724C120.545 161.378 121.355 161.705 122.336 161.705ZM140.132 164.845C139.036 164.845 137.965 164.714 136.918 164.453C135.871 164.175 135.037 163.831 134.416 163.423L135.692 160.675C136.28 161.051 136.992 161.362 137.826 161.607C138.66 161.836 139.478 161.951 140.279 161.951C141.898 161.951 142.707 161.55 142.707 160.749C142.707 160.373 142.487 160.103 142.045 159.939C141.604 159.776 140.925 159.637 140.009 159.522C138.93 159.359 138.038 159.17 137.335 158.958C136.632 158.745 136.019 158.369 135.495 157.829C134.988 157.29 134.735 156.521 134.735 155.524C134.735 154.689 134.972 153.954 135.446 153.316C135.937 152.662 136.64 152.155 137.556 151.795C138.488 151.435 139.584 151.255 140.843 151.255C141.775 151.255 142.699 151.361 143.615 151.574C144.547 151.77 145.316 152.048 145.921 152.408L144.645 155.131C143.484 154.477 142.217 154.15 140.843 154.15C140.025 154.15 139.412 154.264 139.003 154.493C138.594 154.722 138.39 155.017 138.39 155.376C138.39 155.785 138.611 156.071 139.052 156.235C139.494 156.398 140.197 156.554 141.162 156.701C142.241 156.881 143.124 157.077 143.811 157.29C144.498 157.486 145.095 157.854 145.602 158.394C146.109 158.933 146.363 159.686 146.363 160.651C146.363 161.468 146.117 162.196 145.627 162.834C145.136 163.472 144.416 163.97 143.468 164.33C142.536 164.674 141.424 164.845 140.132 164.845ZM159.444 151.255C161.079 151.255 162.396 151.746 163.393 152.727C164.407 153.708 164.914 155.164 164.914 157.094V164.649H161.087V157.682C161.087 156.636 160.858 155.859 160.4 155.352C159.942 154.829 159.28 154.567 158.413 154.567C157.449 154.567 156.68 154.869 156.107 155.474C155.535 156.063 155.249 156.946 155.249 158.124V164.649H151.422V146.447H155.249V152.825C155.756 152.318 156.369 151.934 157.089 151.672C157.808 151.394 158.593 151.255 159.444 151.255ZM171.081 151.451H174.908V164.649H171.081V151.451ZM172.995 149.612C172.292 149.612 171.719 149.407 171.278 148.998C170.836 148.589 170.615 148.082 170.615 147.477C170.615 146.872 170.836 146.365 171.278 145.956C171.719 145.548 172.292 145.343 172.995 145.343C173.698 145.343 174.27 145.539 174.712 145.932C175.154 146.324 175.374 146.815 175.374 147.404C175.374 148.042 175.154 148.573 174.712 148.998C174.27 149.407 173.698 149.612 172.995 149.612Z" fill="#E6EBED"/>
<rect x="20.5059" y="185.916" width="1.53319" height="47.8672" transform="rotate(-90 20.5059 185.916)" fill="#B1C2C8"/>
<path d="M84.1511 189.649V182.17L80.9222 187.924H80.1633L76.9206 182.17V189.649H75.6787V179.852H76.9896L80.5359 186.213L84.0959 179.852H85.393V189.649H84.1511ZM94.3901 188.545V189.649H87.7391V179.852H94.2659V180.956H88.981V184.13H93.576V185.165H88.981V188.545H94.3901ZM101.848 181.908C101.737 181.779 101.59 181.655 101.406 181.535C101.222 181.416 101.015 181.31 100.785 181.218C100.555 181.117 100.302 181.039 100.026 180.984C99.7596 180.919 99.4791 180.887 99.1847 180.887C98.4304 180.887 97.8738 181.029 97.5151 181.315C97.1563 181.6 96.9769 181.991 96.9769 182.488C96.9769 182.837 97.0689 183.113 97.2529 183.315C97.4369 183.518 97.7174 183.683 98.0946 183.812C98.481 183.941 98.9685 184.074 99.5573 184.212C100.238 184.36 100.827 184.539 101.324 184.751C101.82 184.962 102.202 185.247 102.469 185.606C102.736 185.956 102.869 186.425 102.869 187.014C102.869 187.483 102.777 187.892 102.593 188.242C102.418 188.582 102.17 188.867 101.848 189.097C101.526 189.318 101.149 189.483 100.716 189.594C100.284 189.695 99.8148 189.746 99.3089 189.746C98.8121 189.746 98.3246 189.695 97.8462 189.594C97.3771 189.483 96.9309 189.327 96.5078 189.125C96.0846 188.922 95.689 188.669 95.3211 188.366L95.9144 187.317C96.0616 187.473 96.2502 187.63 96.4802 187.786C96.7193 187.933 96.9861 188.071 97.2805 188.2C97.5841 188.329 97.9106 188.435 98.2602 188.518C98.6098 188.591 98.9685 188.628 99.3365 188.628C100.036 188.628 100.578 188.504 100.965 188.255C101.351 187.998 101.544 187.625 101.544 187.138C101.544 186.77 101.434 186.475 101.213 186.255C101.002 186.034 100.684 185.85 100.261 185.703C99.8378 185.555 99.3227 185.408 98.7155 185.261C98.0532 185.096 97.4967 184.916 97.0459 184.723C96.5952 184.521 96.2548 184.258 96.0248 183.936C95.804 183.614 95.6936 183.196 95.6936 182.681C95.6936 182.055 95.8454 181.526 96.149 181.094C96.4526 180.662 96.8711 180.335 97.4047 180.114C97.9382 179.893 98.5408 179.783 99.2123 179.783C99.6539 179.783 100.063 179.829 100.44 179.921C100.827 180.013 101.186 180.142 101.517 180.307C101.848 180.473 102.151 180.671 102.427 180.901L101.848 181.908ZM103.812 188.186C103.987 188.306 104.226 188.421 104.53 188.531C104.843 188.633 105.211 188.683 105.634 188.683C106.066 188.683 106.42 188.614 106.696 188.476C106.972 188.329 107.184 188.113 107.331 187.828C107.478 187.533 107.579 187.161 107.635 186.71C107.69 186.259 107.717 185.726 107.717 185.109V179.852H108.959V184.833C108.959 185.56 108.923 186.227 108.849 186.834C108.775 187.441 108.628 187.97 108.407 188.421C108.187 188.863 107.855 189.203 107.414 189.442C106.982 189.681 106.402 189.801 105.675 189.801C105.215 189.801 104.811 189.75 104.461 189.649C104.111 189.548 103.789 189.396 103.495 189.194L103.812 188.186ZM111.2 189.649V179.852H112.441V189.649H111.2ZM114.784 189.649V179.852H118.178C119.227 179.852 120.101 180.073 120.8 180.514C121.509 180.947 122.038 181.535 122.387 182.281C122.737 183.017 122.911 183.835 122.911 184.737C122.911 185.73 122.718 186.595 122.332 187.331C121.946 188.067 121.398 188.637 120.69 189.042C119.982 189.447 119.144 189.649 118.178 189.649H114.784ZM121.656 184.737C121.656 184.001 121.518 183.348 121.242 182.777C120.975 182.207 120.584 181.761 120.069 181.439C119.554 181.117 118.924 180.956 118.178 180.956H116.026V188.545H118.178C118.933 188.545 119.568 188.38 120.083 188.048C120.598 187.708 120.989 187.253 121.256 186.682C121.522 186.103 121.656 185.454 121.656 184.737Z" fill="#E6EBED"/>
<rect x="129.639" y="185.916" width="1.53319" height="47.8672" transform="rotate(-90 129.639 185.916)" fill="#B1C2C8"/>
</svg>
