<svg width="206" height="216" viewBox="0 0 206 216" fill="none" xmlns="http://www.w3.org/2000/svg">
<rect x="0.00634766" y="0.506378" width="206" height="215.143" rx="12.2655" fill="#2C8378"/>
<rect x="173.722" y="37.1339" width="4.77808" height="92.3125" fill="#4ADBC8"/>
<rect x="163.21" y="37.1339" width="4.77808" height="92.3125" fill="#4ADBC8"/>
<path d="M59.0479 107.467H63.8259V124.668H69.5596V115.112H74.3377V124.668H80.0714V115.112H84.8495V124.668H90.5832V115.112H95.3612V129.446H90.5832H84.8495H80.0714H74.3377H69.5596H63.8259H59.0479V107.467Z" fill="#4ADBC8"/>
<path d="M74.9111 107.467H79.6891V112.245H74.9111V107.467Z" fill="#EDFBFA"/>
<path d="M80.0714 99.8223H84.8495V104.6H80.0714V99.8223Z" fill="#EDFBFA"/>
<path d="M85.2317 107.467H90.0098V112.245H85.2317V107.467Z" fill="#EDFBFA"/>
<path d="M152.698 98.8666H157.476V103.645H152.698V98.8666Z" fill="#EDFBFA"/>
<path d="M152.698 106.512H157.476V124.668H163.21V129.446H157.476H152.698V106.512Z" fill="#4ADBC8"/>
<path d="M131.675 124.668H136.453V129.446H131.675V124.668Z" fill="#EDFBFA"/>
<path d="M142.187 115.112H146.965V124.668H152.698V129.446H146.965H142.187V119.89H125.941V129.446H121.163H101.095V98.8666H105.873V124.668H121.163V119.89H111.607V115.112H121.163H125.941H142.187Z" fill="#4ADBC8"/>
<path d="M38.0245 107.467H42.8025H59.048V112.245H42.8025V129.446H38.0245H32.2908H27.5127V98.8666H32.2908V124.668H38.0245V107.467Z" fill="#4ADBC8"/>
<path d="M48.5362 117.023H53.3143V121.801H48.5362V117.023Z" fill="#EDFBFA"/>
<path d="M48.5362 124.668H53.3143V129.446H48.5362V124.668Z" fill="#EDFBFA"/>
<path d="M163.21 34.2671C163.21 30.3686 166.128 27.1516 169.899 26.6813C170.212 26.6423 170.531 26.6222 170.855 26.6222C171.179 26.6222 171.497 26.6423 171.811 26.6813C175.582 27.1516 178.5 30.3686 178.5 34.2671H163.21Z" fill="#F7EDF0"/>
<path d="M170.95 23.3731C170.983 23.3731 171.014 23.372 171.046 23.37C171.793 23.3208 172.384 22.6992 172.384 21.9397C172.384 21.8733 172.284 21.8623 172.25 21.9192C172.177 22.0402 172.077 22.143 171.959 22.2198C171.84 22.2966 171.705 22.3454 171.565 22.3625C171.425 22.3796 171.282 22.3645 171.149 22.3184C171.015 22.2723 170.894 22.1964 170.794 22.0965C170.694 21.9965 170.618 21.8751 170.572 21.7414C170.526 21.6078 170.511 21.4654 170.528 21.3251C170.545 21.1847 170.593 21.0501 170.67 20.9314C170.747 20.8127 170.85 20.7131 170.971 20.64C171.028 20.6056 171.017 20.5063 170.95 20.5063C170.159 20.5063 169.517 21.148 169.517 21.9397C169.517 22.6332 170.009 23.2116 170.664 23.3444C170.695 23.3508 170.727 23.3562 170.759 23.3605C170.791 23.3647 170.823 23.3679 170.855 23.37C170.886 23.372 170.918 23.3731 170.95 23.3731Z" fill="#F7EDF0"/>
<path d="M170.95 23.3731C170.918 23.3731 170.886 23.372 170.855 23.37C170.823 23.3679 170.791 23.3647 170.759 23.3605C170.727 23.3562 170.695 23.3508 170.664 23.3444V25.0932H170.759H170.855H170.95H171.046V23.37C171.014 23.372 170.983 23.3731 170.95 23.3731Z" fill="#4ADBC8"/>
<path d="M170.282 25.0932C170.07 25.0932 169.899 25.2643 169.899 25.4755V26.6813H171.811V25.4755C171.811 25.2643 171.639 25.0932 171.428 25.0932H171.046H170.95H170.855H170.759H170.664H170.282Z" fill="#4ADBC8"/>
<path fill-rule="evenodd" clip-rule="evenodd" d="M52.341 78.7988C56.5926 66.1683 70.2066 41.893 85.5871 37.2144C87.8082 36.4865 90.129 36.0996 92.5261 36.0996C94.9231 36.0996 97.2561 36.4865 99.4772 37.2144C113.465 41.3235 127.744 65.9279 132.612 78.7988H127.652C122.015 65.86 110.38 45.6277 99.0121 41.9924C96.9718 41.2646 94.8288 40.8777 92.6268 40.8777C90.4249 40.8777 88.293 41.2646 86.2527 41.9924C73.7816 46.1222 62.5748 66.0865 57.431 78.7988H52.341Z" fill="#4ADBC8"/>
<path d="M133.586 81.6657H128.808V89.3106H133.586V81.6657Z" fill="#F7EDF0"/>
<path d="M124.03 89.3106V81.6657H119.252V89.3106H124.03Z" fill="#F7EDF0"/>
<path d="M114.474 89.3106V81.6657H109.696V89.3106H114.474Z" fill="#F7EDF0"/>
<path d="M87.7165 89.3106H92.4945V94.0887H87.7165V89.3106Z" fill="#F7EDF0"/>
<path fill-rule="evenodd" clip-rule="evenodd" d="M35.1576 74.0208L45.6694 81.6657V86.4438V89.3106H76.2491V86.4438H51.4031V81.6657H76.2491L86.7609 74.0208H93.4502L103.962 81.6657V89.3106H109.696H114.474H119.252H124.03H128.808H133.586H139.32V81.6657L149.831 74.0208H157.476V94.0887H139.32H99.1839V83.1947L92.6857 78.7988H87.5253L81.0272 83.1947V94.0887H45.6694H27.5127V89.3106H32.2908H35.1576H40.8913V83.1947L34.3931 78.7988H32.2908V74.0208H35.1576ZM150.596 78.7988L144.098 83.1947V89.3106H152.698V78.7988H150.596Z" fill="#F7EDF0"/>
<path d="M92.5903 27.8643C92.6544 27.8643 92.7182 27.8627 92.7815 27.8594C92.8456 27.856 92.9093 27.851 92.9726 27.8444C94.7985 27.6524 96.2217 26.1009 96.2217 24.2153C96.2217 24.0463 95.9696 24.0182 95.8829 24.1631C95.6977 24.4712 95.4453 24.7329 95.1446 24.9284C94.8439 25.124 94.5029 25.2482 94.1474 25.2917C93.7919 25.3352 93.4312 25.2968 93.0926 25.1794C92.754 25.0621 92.4464 24.8688 92.1932 24.6144C91.9399 24.3599 91.7476 24.0508 91.6308 23.7106C91.5141 23.3703 91.4759 23.0079 91.5191 22.6506C91.5624 22.2933 91.686 21.9506 91.8806 21.6485C92.0752 21.3463 92.3357 21.0926 92.6423 20.9066C92.7864 20.819 92.7585 20.5662 92.5903 20.5662C90.5847 20.5662 88.959 22.1999 88.959 24.2153C88.959 26.1009 90.3822 27.6524 92.2081 27.8444C92.2713 27.851 92.335 27.856 92.3992 27.8594C92.4625 27.8627 92.5262 27.8643 92.5903 27.8643Z" fill="#F7EDF0"/>
<path d="M92.5903 27.8643C92.5262 27.8643 92.4625 27.8627 92.3992 27.8594V30.9933H92.7815V27.8594C92.7182 27.8627 92.6544 27.8643 92.5903 27.8643Z" fill="#4ADBC8"/>
<path d="M91.8659 30.9933C91.4468 30.9933 91.107 31.3359 91.107 31.7584C91.107 32.1809 91.4468 32.5234 91.8659 32.5234H92.2081H92.3992H92.7815H92.9726H93.3839C93.8031 32.5234 94.1429 32.1809 94.1429 31.7584C94.1429 31.3359 93.8031 30.9933 93.3839 30.9933H92.9726H92.7815H92.3992H92.2081H91.8659Z" fill="#F7EDF0"/>
<path d="M92.7815 32.5234H92.3992V36.1123H92.7814L92.7815 32.5234Z" fill="#4ADBC8"/>
<path d="M92.7815 32.5234L92.7814 36.1123H92.9726V32.5234H92.7815Z" fill="#4ADBC8"/>
<path d="M92.3992 36.1123V32.5234H92.2081V36.1123H92.3992Z" fill="#4ADBC8"/>
<path d="M92.3992 30.9933V27.8594C92.335 27.856 92.2713 27.851 92.2081 27.8444V30.9933H92.3992Z" fill="#4ADBC8"/>
<path d="M92.7815 27.8594V30.9933H92.9726V27.8444C92.9093 27.851 92.8456 27.856 92.7815 27.8594Z" fill="#4ADBC8"/>
<path d="M29.7697 147.183C31.356 147.183 32.7379 147.494 33.9154 148.115C35.0929 148.737 36.0087 149.652 36.6629 150.863C37.3171 152.073 37.6441 153.537 37.6441 155.254V164.649H33.6701V160.528H25.8202V164.649H21.8952V155.254C21.8952 153.537 22.2223 152.073 22.8765 150.863C23.5306 149.652 24.4465 148.737 25.6239 148.115C26.8014 147.494 28.1833 147.183 29.7697 147.183ZM33.6701 157.339V154.886C33.6701 153.463 33.3185 152.392 32.6153 151.672C31.9121 150.936 30.9554 150.568 29.7452 150.568C28.5186 150.568 27.5537 150.936 26.8505 151.672C26.1636 152.392 25.8202 153.463 25.8202 154.886V157.339H33.6701ZM52.0168 151.255C53.6522 151.255 54.9687 151.746 55.9663 152.727C56.9803 153.708 57.4872 155.164 57.4872 157.094V164.649H53.6604V157.682C53.6604 156.636 53.4314 155.859 52.9735 155.352C52.5156 154.829 51.8533 154.567 50.9865 154.567C50.0216 154.567 49.253 154.869 48.6806 155.474C48.1082 156.063 47.822 156.946 47.822 158.124V164.649H43.9952V151.451H47.6503V152.997C48.1573 152.441 48.7869 152.016 49.5392 151.721C50.2915 151.411 51.1173 151.255 52.0168 151.255ZM73.6436 163.594V147.502H77.2251L85.6392 158.541V147.502H89.4661V163.594H91.8456V164.649H85.6392L77.4704 153.904V164.649H71.2641V163.594H73.6436ZM102.698 161.779C103.385 161.779 103.99 161.681 104.513 161.485C105.053 161.272 105.551 160.945 106.009 160.503L108.045 162.711C106.803 164.134 104.987 164.845 102.6 164.845C101.111 164.845 99.7948 164.559 98.65 163.987C97.5053 163.398 96.6222 162.588 96.0007 161.558C95.3792 160.528 95.0685 159.359 95.0685 158.05C95.0685 156.758 95.3711 155.597 95.9762 154.567C96.5976 153.52 97.4399 152.711 98.5029 152.138C99.5822 151.55 100.792 151.255 102.133 151.255C103.393 151.255 104.537 151.525 105.568 152.065C106.598 152.588 107.416 153.357 108.021 154.371C108.642 155.368 108.953 156.554 108.953 157.928L99.1897 159.816C99.4677 160.471 99.9011 160.961 100.49 161.288C101.095 161.615 101.831 161.779 102.698 161.779ZM102.133 154.15C101.169 154.15 100.384 154.461 99.7785 155.082C99.1734 155.703 98.8545 156.562 98.8218 157.658L105.249 156.407C105.069 155.72 104.701 155.172 104.145 154.763C103.589 154.354 102.918 154.15 102.133 154.15ZM113.243 169.604C111.902 169.604 110.879 169.359 110.176 168.868L111.206 166.096C111.648 166.407 112.188 166.562 112.826 166.562C113.316 166.562 113.7 166.399 113.978 166.072C114.256 165.761 114.396 165.287 114.396 164.649V151.451H118.222V164.625C118.222 166.162 117.781 167.372 116.898 168.255C116.031 169.155 114.813 169.604 113.243 169.604ZM116.309 149.612C115.606 149.612 115.033 149.407 114.592 148.998C114.15 148.589 113.929 148.082 113.929 147.477C113.929 146.872 114.15 146.365 114.592 145.956C115.033 145.548 115.606 145.343 116.309 145.343C117.012 145.343 117.585 145.539 118.026 145.932C118.468 146.324 118.688 146.815 118.688 147.404C118.688 148.042 118.468 148.573 118.026 148.998C117.585 149.407 117.012 149.612 116.309 149.612ZM137.838 151.451V164.649H134.183V163.128C133.235 164.273 131.861 164.845 130.062 164.845C128.819 164.845 127.691 164.567 126.677 164.011C125.679 163.455 124.894 162.662 124.322 161.632C123.749 160.601 123.463 159.408 123.463 158.05C123.463 156.693 123.749 155.499 124.322 154.469C124.894 153.438 125.679 152.645 126.677 152.089C127.691 151.533 128.819 151.255 130.062 151.255C131.746 151.255 133.063 151.787 134.011 152.85V151.451H137.838ZM130.724 161.705C131.689 161.705 132.491 161.378 133.128 160.724C133.766 160.054 134.085 159.162 134.085 158.05C134.085 156.938 133.766 156.055 133.128 155.401C132.491 154.73 131.689 154.395 130.724 154.395C129.743 154.395 128.934 154.73 128.296 155.401C127.658 156.055 127.339 156.938 127.339 158.05C127.339 159.162 127.658 160.054 128.296 160.724C128.934 161.378 129.743 161.705 130.724 161.705ZM148.52 164.845C147.424 164.845 146.353 164.714 145.306 164.453C144.26 164.175 143.426 163.831 142.804 163.423L144.08 160.675C144.668 161.051 145.38 161.362 146.214 161.607C147.048 161.836 147.866 161.951 148.667 161.951C150.286 161.951 151.096 161.55 151.096 160.749C151.096 160.373 150.875 160.103 150.433 159.939C149.992 159.776 149.313 159.637 148.397 159.522C147.318 159.359 146.427 159.17 145.723 158.958C145.02 158.745 144.407 158.369 143.883 157.829C143.377 157.29 143.123 156.521 143.123 155.524C143.123 154.689 143.36 153.954 143.834 153.316C144.325 152.662 145.028 152.155 145.944 151.795C146.876 151.435 147.972 151.255 149.231 151.255C150.163 151.255 151.087 151.361 152.003 151.574C152.935 151.77 153.704 152.048 154.309 152.408L153.034 155.131C151.872 154.477 150.605 154.15 149.231 154.15C148.414 154.15 147.8 154.264 147.391 154.493C146.983 154.722 146.778 155.017 146.778 155.376C146.778 155.785 146.999 156.071 147.44 156.235C147.882 156.398 148.585 156.554 149.55 156.701C150.63 156.881 151.513 157.077 152.2 157.29C152.886 157.486 153.483 157.854 153.99 158.394C154.497 158.933 154.751 159.686 154.751 160.651C154.751 161.468 154.505 162.196 154.015 162.834C153.524 163.472 152.805 163.97 151.856 164.33C150.924 164.674 149.812 164.845 148.52 164.845ZM167.832 151.255C169.467 151.255 170.784 151.746 171.781 152.727C172.795 153.708 173.302 155.164 173.302 157.094V164.649H169.475V157.682C169.475 156.636 169.246 155.859 168.789 155.352C168.331 154.829 167.668 154.567 166.802 154.567C165.837 154.567 165.068 154.869 164.496 155.474C163.923 156.063 163.637 156.946 163.637 158.124V164.649H159.81V146.447H163.637V152.825C164.144 152.318 164.757 151.934 165.477 151.672C166.196 151.394 166.981 151.255 167.832 151.255ZM179.47 151.451H183.296V164.649H179.47V151.451ZM181.383 149.612C180.68 149.612 180.107 149.407 179.666 148.998C179.224 148.589 179.003 148.082 179.003 147.477C179.003 146.872 179.224 146.365 179.666 145.956C180.107 145.548 180.68 145.343 181.383 145.343C182.086 145.343 182.659 145.539 183.1 145.932C183.542 146.324 183.762 146.815 183.762 147.404C183.762 148.042 183.542 148.573 183.1 148.998C182.659 149.407 182.086 149.612 181.383 149.612Z" fill="#EDFBFA"/>
<rect x="20.0063" y="185.916" width="1.53319" height="12.8673" transform="rotate(-90 20.0063 185.916)" fill="#C7F4EE"/>
<path d="M40.1792 189.649V179.852H41.4211V188.545H46.8854V189.649H40.1792ZM54.8884 188.545V189.649H48.2375V179.852H54.7642V180.956H49.4793V184.13H54.0743V185.165H49.4793V188.545H54.8884ZM59.5726 179.852H60.6213L64.623 189.649H63.2983L62.1392 186.779H58.0272L56.8819 189.649H55.5572L59.5726 179.852ZM61.8632 185.813L60.097 181.287L58.2756 185.813H61.8632ZM65.9305 189.649V179.852H70.1253C70.5577 179.852 70.9532 179.944 71.312 180.128C71.6708 180.303 71.9835 180.542 72.2503 180.846C72.5171 181.14 72.7241 181.476 72.8712 181.853C73.0184 182.221 73.092 182.598 73.092 182.984C73.092 183.435 73.0046 183.863 72.8298 184.268C72.6643 184.672 72.4251 185.017 72.1123 185.302C71.8087 185.588 71.45 185.785 71.036 185.896L73.4094 189.649H72.0019L69.7665 186.13H67.1724V189.649H65.9305ZM67.1724 185.027H70.1391C70.4795 185.027 70.7738 184.935 71.0222 184.751C71.2798 184.557 71.4776 184.304 71.6156 183.992C71.7627 183.679 71.8363 183.343 71.8363 182.984C71.8363 182.616 71.7535 182.281 71.588 181.977C71.4224 181.664 71.2062 181.416 70.9394 181.232C70.6726 181.048 70.3783 180.956 70.0563 180.956H67.1724V185.027ZM76.2412 182.143V189.649H74.9994V179.852H76.0481L82.0367 187.51V179.866H83.2786V189.649H82.1471L76.2412 182.143ZM85.6179 189.649V179.852H86.8598V189.649H85.6179ZM90.4442 182.143V189.649H89.2023V179.852H90.251L96.2396 187.51V179.866H97.4815V189.649H96.35L90.4442 182.143ZM103.753 189.718C103.11 189.718 102.507 189.58 101.946 189.304C101.394 189.019 100.911 188.642 100.497 188.173C100.083 187.694 99.761 187.161 99.5311 186.572C99.3011 185.974 99.1861 185.358 99.1861 184.723C99.1861 184.061 99.3011 183.435 99.5311 182.846C99.761 182.248 100.078 181.719 100.483 181.259C100.897 180.8 101.38 180.441 101.932 180.183C102.493 179.916 103.1 179.783 103.753 179.783C104.701 179.783 105.483 179.981 106.099 180.376C106.716 180.772 107.18 181.287 107.493 181.922L106.541 182.584C106.256 182.014 105.865 181.591 105.368 181.315C104.871 181.039 104.324 180.901 103.726 180.901C103.229 180.901 102.778 181.007 102.374 181.218C101.969 181.43 101.619 181.719 101.325 182.087C101.04 182.446 100.819 182.856 100.663 183.315C100.515 183.775 100.442 184.254 100.442 184.751C100.442 185.275 100.525 185.772 100.69 186.241C100.865 186.701 101.109 187.11 101.421 187.469C101.734 187.818 102.098 188.094 102.512 188.297C102.926 188.499 103.372 188.6 103.85 188.6C104.411 188.6 104.945 188.458 105.451 188.173C105.957 187.887 106.435 187.45 106.886 186.862V188.145C106.003 189.194 104.959 189.718 103.753 189.718ZM106.734 185.703H104.623V184.764H107.783V189.649H106.734V185.703ZM112.527 184.682C112.527 184.084 112.628 183.499 112.83 182.929C113.042 182.35 113.345 181.825 113.741 181.356C114.146 180.878 114.638 180.501 115.217 180.225C115.797 179.939 116.455 179.797 117.191 179.797C118.064 179.797 118.814 179.999 119.44 180.404C120.065 180.8 120.53 181.31 120.833 181.936L119.854 182.57C119.661 182.156 119.412 181.83 119.109 181.591C118.814 181.342 118.492 181.167 118.143 181.066C117.802 180.965 117.467 180.915 117.135 180.915C116.593 180.915 116.11 181.025 115.687 181.246C115.273 181.466 114.923 181.761 114.638 182.129C114.353 182.497 114.136 182.911 113.989 183.371C113.851 183.821 113.782 184.277 113.782 184.737C113.782 185.243 113.865 185.73 114.031 186.199C114.205 186.669 114.445 187.083 114.748 187.441C115.052 187.8 115.411 188.085 115.824 188.297C116.238 188.508 116.689 188.614 117.177 188.614C117.517 188.614 117.867 188.554 118.225 188.435C118.584 188.315 118.92 188.131 119.233 187.883C119.546 187.625 119.794 187.294 119.978 186.889L121.013 187.455C120.81 187.943 120.498 188.357 120.074 188.697C119.651 189.037 119.178 189.295 118.653 189.47C118.138 189.644 117.628 189.732 117.122 189.732C116.45 189.732 115.834 189.589 115.273 189.304C114.711 189.01 114.224 188.623 113.81 188.145C113.405 187.657 113.088 187.115 112.858 186.517C112.637 185.91 112.527 185.298 112.527 184.682ZM129.218 188.545V189.649H122.567V179.852H129.094V180.956H123.809V184.13H128.404V185.165H123.809V188.545H129.218ZM132.164 182.143V189.649H130.922V179.852H131.97L137.959 187.51V179.866H139.201V189.649H138.069L132.164 182.143ZM148.605 180.956H145.225V189.649H143.983V180.956H140.602V179.852H148.605V180.956ZM156.667 188.545V189.649H150.016V179.852H156.543V180.956H151.258V184.13H155.853V185.165H151.258V188.545H156.667ZM158.371 189.649V179.852H162.566C162.998 179.852 163.394 179.944 163.752 180.128C164.111 180.303 164.424 180.542 164.691 180.846C164.957 181.14 165.164 181.476 165.312 181.853C165.459 182.221 165.532 182.598 165.532 182.984C165.532 183.435 165.445 183.863 165.27 184.268C165.105 184.672 164.865 185.017 164.553 185.302C164.249 185.588 163.89 185.785 163.476 185.896L165.85 189.649H164.442L162.207 186.13H159.613V189.649H158.371ZM159.613 185.027H162.58C162.92 185.027 163.214 184.935 163.463 184.751C163.72 184.557 163.918 184.304 164.056 183.992C164.203 183.679 164.277 183.343 164.277 182.984C164.277 182.616 164.194 182.281 164.028 181.977C163.863 181.664 163.647 181.416 163.38 181.232C163.113 181.048 162.819 180.956 162.497 180.956H159.613V185.027Z" fill="#EDFBFA"/>
<rect x="173.139" y="185.916" width="1.53319" height="12.8673" transform="rotate(-90 173.139 185.916)" fill="#C7F4EE"/>
</svg>
