<svg width="198" height="216" viewBox="0 0 198 216" fill="none" xmlns="http://www.w3.org/2000/svg">
<rect x="0.506348" y="0.506378" width="197" height="215.143" rx="12.2655" fill="#2C8378"/>
<rect x="169.722" y="37.1339" width="4.77808" height="92.3125" fill="#4ADBC8"/>
<rect x="159.21" y="37.1339" width="4.77808" height="92.3125" fill="#4ADBC8"/>
<path d="M55.0479 107.467H59.8259V124.668H65.5596V115.112H70.3377V124.668H76.0714V115.112H80.8495V124.668H86.5832V115.112H91.3612V129.446H86.5832H80.8495H76.0714H70.3377H65.5596H59.8259H55.0479V107.467Z" fill="#4ADBC8"/>
<path d="M70.9111 107.467H75.6891V112.245H70.9111V107.467Z" fill="#EDFBFA"/>
<path d="M76.0714 99.8223H80.8495V104.6H76.0714V99.8223Z" fill="#EDFBFA"/>
<path d="M81.2317 107.467H86.0098V112.245H81.2317V107.467Z" fill="#EDFBFA"/>
<path d="M148.698 98.8666H153.476V103.645H148.698V98.8666Z" fill="#EDFBFA"/>
<path d="M148.698 106.512H153.476V124.668H159.21V129.446H153.476H148.698V106.512Z" fill="#4ADBC8"/>
<path d="M127.675 124.668H132.453V129.446H127.675V124.668Z" fill="#EDFBFA"/>
<path d="M138.187 115.112H142.965V124.668H148.698V129.446H142.965H138.187V119.89H121.941V129.446H117.163H97.0952V98.8666H101.873V124.668H117.163V119.89H107.607V115.112H117.163H121.941H138.187Z" fill="#4ADBC8"/>
<path d="M34.0245 107.467H38.8025H55.048V112.245H38.8025V129.446H34.0245H28.2908H23.5127V98.8666H28.2908V124.668H34.0245V107.467Z" fill="#4ADBC8"/>
<path d="M44.5362 117.023H49.3143V121.801H44.5362V117.023Z" fill="#EDFBFA"/>
<path d="M44.5362 124.668H49.3143V129.446H44.5362V124.668Z" fill="#EDFBFA"/>
<path d="M159.21 34.2671C159.21 30.3686 162.128 27.1516 165.899 26.6813C166.212 26.6423 166.531 26.6222 166.855 26.6222C167.179 26.6222 167.497 26.6423 167.811 26.6813C171.582 27.1516 174.5 30.3686 174.5 34.2671H159.21Z" fill="#F7EDF0"/>
<path d="M166.95 23.3731C166.983 23.3731 167.014 23.372 167.046 23.37C167.793 23.3208 168.384 22.6992 168.384 21.9397C168.384 21.8733 168.284 21.8623 168.25 21.9192C168.177 22.0402 168.077 22.143 167.959 22.2198C167.84 22.2966 167.705 22.3454 167.565 22.3625C167.425 22.3796 167.282 22.3645 167.149 22.3184C167.015 22.2723 166.894 22.1964 166.794 22.0965C166.694 21.9965 166.618 21.8751 166.572 21.7414C166.526 21.6078 166.511 21.4654 166.528 21.3251C166.545 21.1847 166.593 21.0501 166.67 20.9314C166.747 20.8127 166.85 20.7131 166.971 20.64C167.028 20.6056 167.017 20.5063 166.95 20.5063C166.159 20.5063 165.517 21.148 165.517 21.9397C165.517 22.6332 166.009 23.2116 166.664 23.3444C166.695 23.3508 166.727 23.3562 166.759 23.3605C166.791 23.3647 166.823 23.3679 166.855 23.37C166.886 23.372 166.918 23.3731 166.95 23.3731Z" fill="#F7EDF0"/>
<path d="M166.95 23.3731C166.918 23.3731 166.886 23.372 166.855 23.37C166.823 23.3679 166.791 23.3647 166.759 23.3605C166.727 23.3562 166.695 23.3508 166.664 23.3444V25.0932H166.759H166.855H166.95H167.046V23.37C167.014 23.372 166.983 23.3731 166.95 23.3731Z" fill="#4ADBC8"/>
<path d="M166.282 25.0932C166.07 25.0932 165.899 25.2643 165.899 25.4755V26.6813H167.811V25.4755C167.811 25.2643 167.639 25.0932 167.428 25.0932H167.046H166.95H166.855H166.759H166.664H166.282Z" fill="#4ADBC8"/>
<path fill-rule="evenodd" clip-rule="evenodd" d="M48.341 78.7988C52.5926 66.1683 66.2066 41.893 81.5871 37.2144C83.8082 36.4865 86.129 36.0996 88.5261 36.0996C90.9231 36.0996 93.2561 36.4865 95.4772 37.2144C109.465 41.3235 123.744 65.9279 128.612 78.7988H123.652C118.015 65.86 106.38 45.6277 95.0121 41.9924C92.9718 41.2646 90.8288 40.8777 88.6268 40.8777C86.4249 40.8777 84.293 41.2646 82.2527 41.9924C69.7816 46.1222 58.5748 66.0865 53.431 78.7988H48.341Z" fill="#4ADBC8"/>
<path d="M129.586 81.6657H124.808V89.3106H129.586V81.6657Z" fill="#F7EDF0"/>
<path d="M120.03 89.3106V81.6657H115.252V89.3106H120.03Z" fill="#F7EDF0"/>
<path d="M110.474 89.3106V81.6657H105.696V89.3106H110.474Z" fill="#F7EDF0"/>
<path d="M83.7165 89.3106H88.4945V94.0887H83.7165V89.3106Z" fill="#F7EDF0"/>
<path fill-rule="evenodd" clip-rule="evenodd" d="M31.1576 74.0208L41.6694 81.6657V86.4438V89.3106H72.2491V86.4438H47.4031V81.6657H72.2491L82.7609 74.0208H89.4502L99.9619 81.6657V89.3106H105.696H110.474H115.252H120.03H124.808H129.586H135.32V81.6657L145.831 74.0208H153.476V94.0887H135.32H95.1839V83.1947L88.6857 78.7988H83.5253L77.0272 83.1947V94.0887H41.6694H23.5127V89.3106H28.2908H31.1576H36.8913V83.1947L30.3931 78.7988H28.2908V74.0208H31.1576ZM146.596 78.7988L140.098 83.1947V89.3106H148.698V78.7988H146.596Z" fill="#F7EDF0"/>
<path d="M88.5903 27.8643C88.6544 27.8643 88.7182 27.8627 88.7815 27.8594C88.8456 27.856 88.9093 27.851 88.9726 27.8444C90.7985 27.6524 92.2217 26.1009 92.2217 24.2153C92.2217 24.0463 91.9696 24.0182 91.8829 24.1631C91.6977 24.4712 91.4453 24.7329 91.1446 24.9284C90.8439 25.124 90.5029 25.2482 90.1474 25.2917C89.7919 25.3352 89.4312 25.2968 89.0926 25.1794C88.754 25.0621 88.4464 24.8688 88.1932 24.6144C87.9399 24.3599 87.7476 24.0508 87.6308 23.7106C87.5141 23.3703 87.4759 23.0079 87.5191 22.6506C87.5624 22.2933 87.686 21.9506 87.8806 21.6485C88.0752 21.3463 88.3357 21.0926 88.6423 20.9066C88.7864 20.819 88.7585 20.5662 88.5903 20.5662C86.5847 20.5662 84.959 22.1999 84.959 24.2153C84.959 26.1009 86.3822 27.6524 88.2081 27.8444C88.2713 27.851 88.335 27.856 88.3992 27.8594C88.4625 27.8627 88.5262 27.8643 88.5903 27.8643Z" fill="#F7EDF0"/>
<path d="M88.5903 27.8643C88.5262 27.8643 88.4625 27.8627 88.3992 27.8594V30.9933H88.7815V27.8594C88.7182 27.8627 88.6544 27.8643 88.5903 27.8643Z" fill="#4ADBC8"/>
<path d="M87.8659 30.9933C87.4468 30.9933 87.107 31.3359 87.107 31.7584C87.107 32.1809 87.4468 32.5234 87.8659 32.5234H88.2081H88.3992H88.7815H88.9726H89.3839C89.8031 32.5234 90.1429 32.1809 90.1429 31.7584C90.1429 31.3359 89.8031 30.9933 89.3839 30.9933H88.9726H88.7815H88.3992H88.2081H87.8659Z" fill="#F7EDF0"/>
<path d="M88.7815 32.5234H88.3992V36.1123H88.7814L88.7815 32.5234Z" fill="#4ADBC8"/>
<path d="M88.7815 32.5234L88.7814 36.1123H88.9726V32.5234H88.7815Z" fill="#4ADBC8"/>
<path d="M88.3992 36.1123V32.5234H88.2081V36.1123H88.3992Z" fill="#4ADBC8"/>
<path d="M88.3992 30.9933V27.8594C88.335 27.856 88.2713 27.851 88.2081 27.8444V30.9933H88.3992Z" fill="#4ADBC8"/>
<path d="M88.7815 27.8594V30.9933H88.9726V27.8444C88.9093 27.851 88.8456 27.856 88.7815 27.8594Z" fill="#4ADBC8"/>
<path d="M30.2697 147.183C31.856 147.183 33.2379 147.494 34.4154 148.115C35.5929 148.737 36.5087 149.652 37.1629 150.863C37.8171 152.073 38.1441 153.537 38.1441 155.254V164.649H34.1701V160.528H26.3202V164.649H22.3952V155.254C22.3952 153.537 22.7223 152.073 23.3765 150.863C24.0306 149.652 24.9465 148.737 26.1239 148.115C27.3014 147.494 28.6833 147.183 30.2697 147.183ZM34.1701 157.339V154.886C34.1701 153.463 33.8185 152.392 33.1153 151.672C32.4121 150.936 31.4554 150.568 30.2452 150.568C29.0186 150.568 28.0537 150.936 27.3505 151.672C26.6636 152.392 26.3202 153.463 26.3202 154.886V157.339H34.1701ZM49.2297 164.845C47.7414 164.845 46.5803 164.453 45.7463 163.668C44.9122 162.866 44.4952 161.738 44.4952 160.283V146.447H48.322V160.062C48.322 160.618 48.461 161.051 48.739 161.362C49.0334 161.656 49.4423 161.803 49.9656 161.803C50.1618 161.803 50.3581 161.779 50.5543 161.73C50.7669 161.681 50.9305 161.624 51.045 161.558L51.2167 164.526C50.5789 164.739 49.9165 164.845 49.2297 164.845ZM74.8103 147.183C76.8546 147.183 78.4491 147.829 79.5939 149.121C80.7386 150.397 81.311 152.22 81.311 154.591V164.649H77.337V154.714C77.337 153.34 77.0099 152.31 76.3558 151.623C75.718 150.92 74.8267 150.568 73.6819 150.568C72.4717 150.568 71.4986 150.944 70.7627 151.697C70.0431 152.433 69.6833 153.528 69.6833 154.984V164.649H65.7093V147.477H69.5607V149.563C70.1494 148.778 70.8854 148.189 71.7685 147.796C72.6516 147.387 73.6655 147.183 74.8103 147.183ZM94.31 161.779C94.9968 161.779 95.6019 161.681 96.1253 161.485C96.6649 161.272 97.1637 160.945 97.6217 160.503L99.6577 162.711C98.4148 164.134 96.5995 164.845 94.2118 164.845C92.7236 164.845 91.4071 164.559 90.2624 163.987C89.1176 163.398 88.2345 162.588 87.613 161.558C86.9916 160.528 86.6808 159.359 86.6808 158.05C86.6808 156.758 86.9834 155.597 87.5885 154.567C88.2099 153.52 89.0522 152.711 90.1152 152.138C91.1945 151.55 92.4047 151.255 93.7458 151.255C95.005 151.255 96.1498 151.525 97.1801 152.065C98.2104 152.588 99.0281 153.357 99.6332 154.371C100.255 155.368 100.565 156.554 100.565 157.928L90.802 159.816C91.0801 160.471 91.5134 160.961 92.1022 161.288C92.7073 161.615 93.4432 161.779 94.31 161.779ZM93.7458 154.15C92.7809 154.15 91.9959 154.461 91.3908 155.082C90.7857 155.703 90.4668 156.562 90.4341 157.658L96.8612 156.407C96.6813 155.72 96.3133 155.172 95.7573 154.763C95.2013 154.354 94.5307 154.15 93.7458 154.15ZM104.855 169.604C103.514 169.604 102.492 169.359 101.788 168.868L102.819 166.096C103.26 166.407 103.8 166.562 104.438 166.562C104.928 166.562 105.313 166.399 105.591 166.072C105.869 165.761 106.008 165.287 106.008 164.649V151.451H109.835V164.625C109.835 166.162 109.393 167.372 108.51 168.255C107.643 169.155 106.425 169.604 104.855 169.604ZM107.921 149.612C107.218 149.612 106.646 149.407 106.204 148.998C105.763 148.589 105.542 148.082 105.542 147.477C105.542 146.872 105.763 146.365 106.204 145.956C106.646 145.548 107.218 145.343 107.921 145.343C108.624 145.343 109.197 145.539 109.638 145.932C110.08 146.324 110.301 146.815 110.301 147.404C110.301 148.042 110.08 148.573 109.638 148.998C109.197 149.407 108.624 149.612 107.921 149.612ZM129.451 151.451V164.649H125.796V163.128C124.847 164.273 123.473 164.845 121.674 164.845C120.431 164.845 119.303 164.567 118.289 164.011C117.291 163.455 116.506 162.662 115.934 161.632C115.362 160.601 115.075 159.408 115.075 158.05C115.075 156.693 115.362 155.499 115.934 154.469C116.506 153.438 117.291 152.645 118.289 152.089C119.303 151.533 120.431 151.255 121.674 151.255C123.359 151.255 124.675 151.787 125.624 152.85V151.451H129.451ZM122.337 161.705C123.302 161.705 124.103 161.378 124.741 160.724C125.378 160.054 125.697 159.162 125.697 158.05C125.697 156.938 125.378 156.055 124.741 155.401C124.103 154.73 123.302 154.395 122.337 154.395C121.355 154.395 120.546 154.73 119.908 155.401C119.27 156.055 118.951 156.938 118.951 158.05C118.951 159.162 119.27 160.054 119.908 160.724C120.546 161.378 121.355 161.705 122.337 161.705ZM140.132 164.845C139.036 164.845 137.965 164.714 136.919 164.453C135.872 164.175 135.038 163.831 134.416 163.423L135.692 160.675C136.281 161.051 136.992 161.362 137.826 161.607C138.66 161.836 139.478 161.951 140.279 161.951C141.898 161.951 142.708 161.55 142.708 160.749C142.708 160.373 142.487 160.103 142.046 159.939C141.604 159.776 140.925 159.637 140.01 159.522C138.93 159.359 138.039 159.17 137.336 158.958C136.632 158.745 136.019 158.369 135.496 157.829C134.989 157.29 134.735 156.521 134.735 155.524C134.735 154.689 134.972 153.954 135.447 153.316C135.937 152.662 136.641 152.155 137.556 151.795C138.489 151.435 139.584 151.255 140.844 151.255C141.776 151.255 142.7 151.361 143.616 151.574C144.548 151.77 145.316 152.048 145.921 152.408L144.646 155.131C143.485 154.477 142.217 154.15 140.844 154.15C140.026 154.15 139.413 154.264 139.004 154.493C138.595 154.722 138.39 155.017 138.39 155.376C138.39 155.785 138.611 156.071 139.053 156.235C139.494 156.398 140.198 156.554 141.162 156.701C142.242 156.881 143.125 157.077 143.812 157.29C144.499 157.486 145.096 157.854 145.603 158.394C146.11 158.933 146.363 159.686 146.363 160.651C146.363 161.468 146.118 162.196 145.627 162.834C145.136 163.472 144.417 163.97 143.468 164.33C142.536 164.674 141.424 164.845 140.132 164.845ZM159.444 151.255C161.08 151.255 162.396 151.746 163.394 152.727C164.408 153.708 164.915 155.164 164.915 157.094V164.649H161.088V157.682C161.088 156.636 160.859 155.859 160.401 155.352C159.943 154.829 159.281 154.567 158.414 154.567C157.449 154.567 156.68 154.869 156.108 155.474C155.536 156.063 155.249 156.946 155.249 158.124V164.649H151.423V146.447H155.249V152.825C155.756 152.318 156.37 151.934 157.089 151.672C157.809 151.394 158.594 151.255 159.444 151.255ZM171.082 151.451H174.909V164.649H171.082V151.451ZM172.995 149.612C172.292 149.612 171.72 149.407 171.278 148.998C170.837 148.589 170.616 148.082 170.616 147.477C170.616 146.872 170.837 146.365 171.278 145.956C171.72 145.548 172.292 145.343 172.995 145.343C173.698 145.343 174.271 145.539 174.712 145.932C175.154 146.324 175.375 146.815 175.375 147.404C175.375 148.042 175.154 148.573 174.712 148.998C174.271 149.407 173.698 149.612 172.995 149.612Z" fill="#EDFBFA"/>
<rect x="20.5063" y="185.916" width="1.53319" height="47.8672" transform="rotate(-90 20.5063 185.916)" fill="#C7F4EE"/>
<path d="M84.1516 189.649V182.17L80.9227 187.924H80.1638L76.9211 182.17V189.649H75.6792V179.852H76.9901L80.5364 186.213L84.0964 179.852H85.3935V189.649H84.1516ZM94.3906 188.545V189.649H87.7396V179.852H94.2664V180.956H88.9815V184.13H93.5765V185.165H88.9815V188.545H94.3906ZM101.848 181.908C101.738 181.779 101.591 181.655 101.407 181.535C101.223 181.416 101.016 181.31 100.786 181.218C100.556 181.117 100.303 181.039 100.027 180.984C99.7601 180.919 99.4796 180.887 99.1852 180.887C98.4309 180.887 97.8743 181.029 97.5156 181.315C97.1568 181.6 96.9774 181.991 96.9774 182.488C96.9774 182.837 97.0694 183.113 97.2534 183.315C97.4374 183.518 97.7179 183.683 98.0951 183.812C98.4815 183.941 98.969 184.074 99.5578 184.212C100.238 184.36 100.827 184.539 101.324 184.751C101.821 184.962 102.203 185.247 102.469 185.606C102.736 185.956 102.869 186.425 102.869 187.014C102.869 187.483 102.777 187.892 102.593 188.242C102.419 188.582 102.17 188.867 101.848 189.097C101.526 189.318 101.149 189.483 100.717 189.594C100.284 189.695 99.8153 189.746 99.3094 189.746C98.8126 189.746 98.3251 189.695 97.8467 189.594C97.3776 189.483 96.9314 189.327 96.5082 189.125C96.0851 188.922 95.6895 188.669 95.3216 188.366L95.9149 187.317C96.0621 187.473 96.2507 187.63 96.4806 187.786C96.7198 187.933 96.9866 188.071 97.281 188.2C97.5845 188.329 97.9111 188.435 98.2607 188.518C98.6102 188.591 98.969 188.628 99.337 188.628C100.036 188.628 100.579 188.504 100.965 188.255C101.352 187.998 101.545 187.625 101.545 187.138C101.545 186.77 101.434 186.475 101.214 186.255C101.002 186.034 100.685 185.85 100.261 185.703C99.8383 185.555 99.3232 185.408 98.716 185.261C98.0537 185.096 97.4972 184.916 97.0464 184.723C96.5956 184.521 96.2553 184.258 96.0253 183.936C95.8045 183.614 95.6941 183.196 95.6941 182.681C95.6941 182.055 95.8459 181.526 96.1495 181.094C96.4531 180.662 96.8716 180.335 97.4052 180.114C97.9387 179.893 98.5413 179.783 99.2128 179.783C99.6543 179.783 100.064 179.829 100.441 179.921C100.827 180.013 101.186 180.142 101.517 180.307C101.848 180.473 102.152 180.671 102.428 180.901L101.848 181.908ZM103.813 188.186C103.988 188.306 104.227 188.421 104.53 188.531C104.843 188.633 105.211 188.683 105.634 188.683C106.067 188.683 106.421 188.614 106.697 188.476C106.973 188.329 107.184 188.113 107.332 187.828C107.479 187.533 107.58 187.161 107.635 186.71C107.69 186.259 107.718 185.726 107.718 185.109V179.852H108.96V184.833C108.96 185.56 108.923 186.227 108.849 186.834C108.776 187.441 108.629 187.97 108.408 188.421C108.187 188.863 107.856 189.203 107.414 189.442C106.982 189.681 106.402 189.801 105.676 189.801C105.216 189.801 104.811 189.75 104.461 189.649C104.112 189.548 103.79 189.396 103.496 189.194L103.813 188.186ZM111.2 189.649V179.852H112.442V189.649H111.2ZM114.784 189.649V179.852H118.179C119.228 179.852 120.102 180.073 120.801 180.514C121.509 180.947 122.038 181.535 122.388 182.281C122.737 183.017 122.912 183.835 122.912 184.737C122.912 185.73 122.719 186.595 122.332 187.331C121.946 188.067 121.399 188.637 120.69 189.042C119.982 189.447 119.145 189.649 118.179 189.649H114.784ZM121.656 184.737C121.656 184.001 121.518 183.348 121.242 182.777C120.976 182.207 120.585 181.761 120.069 181.439C119.554 181.117 118.924 180.956 118.179 180.956H116.026V188.545H118.179C118.933 188.545 119.568 188.38 120.083 188.048C120.598 187.708 120.989 187.253 121.256 186.682C121.523 186.103 121.656 185.454 121.656 184.737Z" fill="#EDFBFA"/>
<rect x="129.639" y="185.916" width="1.53319" height="47.8672" transform="rotate(-90 129.639 185.916)" fill="#C7F4EE"/>
</svg>
