<svg width="2654" height="1670" viewBox="0 0 2654 1670" fill="none" xmlns="http://www.w3.org/2000/svg">
<g filter="url(#filter0_f_68_4)">
<path d="M438.255 817.316H420.264C412.388 817.316 405.442 822.474 403.166 830.014L402.535 832.105C234.919 845.239 93.0499 950.015 27 1096.36V1670.14H2626.61V1096.36C2560.56 950.015 2418.69 845.239 2251.07 832.105L2250.44 830.014C2248.16 822.474 2241.22 817.316 2233.34 817.316H2215.35H2197.36C2189.48 817.316 2182.54 822.474 2180.26 830.014L2179.63 832.105C2087.25 839.344 2002.7 874.417 1934.34 928.942C1912.66 879.827 1819.3 758.377 1619.26 665.504C1419.23 572.63 1340.94 482.436 1326.8 448.948C1312.66 482.436 1234.38 572.63 1034.34 665.504C834.306 758.377 740.941 879.827 719.262 928.942C650.908 874.417 566.352 839.344 473.976 832.105L473.345 830.014C471.068 822.474 464.122 817.316 456.247 817.316H438.255Z" fill="#E4FAF7"/>
<path d="M1326.8 241.323C1385.99 241.323 1433.96 193.347 1433.96 134.161C1433.96 129.2 1426.53 128.375 1423.97 132.629C1418.5 141.677 1411.05 149.363 1402.18 155.106C1393.31 160.848 1383.24 164.496 1372.75 165.773C1362.26 167.05 1351.61 165.923 1341.62 162.476C1331.63 159.03 1322.56 153.355 1315.08 145.882C1307.61 138.408 1301.93 129.332 1298.49 119.341C1295.04 109.349 1293.91 98.7042 1295.19 88.2124C1296.47 77.7207 1300.12 67.6571 1305.86 58.7839C1311.6 49.9108 1319.29 42.4608 1328.33 36.9982C1332.59 34.4263 1331.76 27 1326.8 27C1267.62 27 1219.64 74.9762 1219.64 134.161C1219.64 193.347 1267.62 241.323 1326.8 241.323Z" fill="#E4FAF7"/>
<path d="M1326.8 326.159H1315.64C1311.94 326.159 1308.94 329.158 1308.94 332.857C1308.94 336.556 1311.94 339.554 1315.64 339.554H1326.8H1337.97C1341.66 339.554 1344.66 336.556 1344.66 332.857C1344.66 329.158 1341.66 326.159 1337.97 326.159H1326.8Z" fill="#E4FAF7"/>
<path d="M1326.8 415.46H1307.83C1298.58 415.46 1291.08 422.957 1291.08 432.204C1291.08 441.452 1298.58 448.948 1307.83 448.948H1326.8H1345.78C1355.03 448.948 1362.52 441.452 1362.52 432.204C1362.52 422.957 1355.03 415.46 1345.78 415.46H1326.8Z" fill="#E4FAF7"/>
<path d="M1362.53 71.6506C1365.06 71.6506 1366.76 74.6869 1370.15 80.7864L1371.03 82.3581C1371.99 84.0906 1372.47 84.9479 1373.22 85.5195C1373.98 86.091 1374.92 86.3054 1376.8 86.7251L1378.49 87.118L1378.53 87.1265C1385.1 88.6122 1388.38 89.3554 1389.17 91.869C1389.95 94.3924 1387.71 97.0137 1383.23 102.249L1383.23 102.249L1383.21 102.273L1382.05 103.63L1381.99 103.7C1380.75 105.145 1380.12 105.877 1379.84 106.792C1379.58 107.651 1379.64 108.563 1379.8 110.271L1379.83 110.621L1379.83 110.624L1379.83 110.626L1379.84 110.703L1380.02 112.516C1380.7 119.526 1381.04 123.036 1378.99 124.59C1376.94 126.144 1373.85 124.724 1367.68 121.884L1366.09 121.152L1365.96 121.093C1364.29 120.328 1363.43 119.937 1362.53 119.937C1361.62 119.937 1360.77 120.328 1359.09 121.093L1358.96 121.152L1357.37 121.884C1351.2 124.733 1348.11 126.144 1346.06 124.59C1344.01 123.042 1344.35 119.553 1345.02 112.596V112.595L1345.03 112.516L1345.21 110.703L1345.22 110.626L1345.22 110.624L1345.22 110.621L1345.25 110.271C1345.41 108.563 1345.47 107.651 1345.21 106.792C1344.92 105.873 1344.28 105.123 1343.01 103.635L1343 103.63L1341.84 102.273L1341.82 102.248C1337.34 97.0135 1335.1 94.3923 1335.89 91.869C1336.67 89.3554 1339.96 88.6122 1346.52 87.1265L1346.56 87.118L1348.26 86.7251L1348.32 86.7117C1350.15 86.3009 1351.08 86.0937 1351.83 85.5195C1352.58 84.9479 1353.06 84.0906 1354.02 82.3581L1354.9 80.7864L1354.9 80.7846C1358.29 74.6953 1359.99 71.6506 1362.53 71.6506Z" fill="#E4FAF7"/>
<path d="M438.044 693.891C455.743 693.891 470.089 679.589 470.089 661.945C470.089 660.466 467.865 660.22 467.099 661.488C465.466 664.186 463.238 666.477 460.584 668.189C457.931 669.901 454.922 670.988 451.785 671.369C448.647 671.75 445.464 671.414 442.476 670.386C439.489 669.359 436.775 667.667 434.54 665.439C432.305 663.211 430.608 660.506 429.578 657.527C428.547 654.549 428.21 651.375 428.592 648.248C428.974 645.12 430.064 642.12 431.781 639.475C433.499 636.83 435.797 634.609 438.503 632.981C439.775 632.214 439.528 630 438.044 630C420.346 630 406 644.302 406 661.945C406 679.589 420.346 693.891 438.044 693.891Z" fill="#E4FAF7"/>
<path d="M2215.04 693.891C2232.74 693.891 2247.09 679.589 2247.09 661.945C2247.09 660.466 2244.86 660.22 2244.1 661.488C2242.47 664.186 2240.24 666.477 2237.58 668.189C2234.93 669.901 2231.92 670.988 2228.78 671.369C2225.65 671.75 2222.46 671.414 2219.48 670.386C2216.49 669.359 2213.77 667.667 2211.54 665.439C2209.3 663.211 2207.61 660.506 2206.58 657.527C2205.55 654.549 2205.21 651.375 2205.59 648.248C2205.97 645.12 2207.06 642.12 2208.78 639.475C2210.5 636.83 2212.8 634.609 2215.5 632.981C2216.78 632.214 2216.53 630 2215.04 630C2197.35 630 2183 644.302 2183 661.945C2183 679.589 2197.35 693.891 2215.04 693.891Z" fill="#E4FAF7"/>
<path d="M438.255 694.248V758.015M438.255 758.015H431.558C427.859 758.015 424.86 761.013 424.86 764.712V764.712C424.86 768.411 427.859 771.41 431.558 771.41H438.255M438.255 758.015H444.953C448.652 758.015 451.65 761.013 451.65 764.712V764.712C451.65 768.411 448.652 771.41 444.953 771.41H438.255M438.255 817.316H420.264C412.388 817.316 405.442 822.474 403.166 830.014L402.535 832.105C234.919 845.239 93.0499 950.015 27 1096.36V1670.14H2626.61V1096.36C2560.56 950.015 2418.69 845.239 2251.07 832.105L2250.44 830.014C2248.16 822.474 2241.22 817.316 2233.34 817.316H2215.35M438.255 817.316H456.247C464.122 817.316 471.068 822.474 473.345 830.014L473.976 832.105C566.352 839.344 650.908 874.417 719.262 928.942C740.941 879.827 834.306 758.377 1034.34 665.504C1234.38 572.63 1312.66 482.436 1326.8 448.948M438.255 817.316V771.41M1326.8 448.948C1340.94 482.436 1419.23 572.63 1619.26 665.504C1819.3 758.377 1912.66 879.827 1934.34 928.942C2002.7 874.417 2087.25 839.344 2179.63 832.105L2180.26 830.014C2182.54 822.474 2189.48 817.316 2197.36 817.316H2215.35M1326.8 448.948H1307.83C1298.58 448.948 1291.08 441.452 1291.08 432.204V432.204C1291.08 422.957 1298.58 415.46 1307.83 415.46H1326.8M1326.8 448.948H1345.78C1355.03 448.948 1362.52 441.452 1362.52 432.204V432.204C1362.52 422.957 1355.03 415.46 1345.78 415.46H1326.8M2215.35 694.248V758.015M2215.35 758.015H2222.05C2225.75 758.015 2228.74 761.013 2228.74 764.712C2228.74 768.411 2225.75 771.41 2222.05 771.41H2215.35M2215.35 758.015H2208.65C2204.95 758.015 2201.95 761.013 2201.95 764.712C2201.95 768.411 2204.95 771.41 2208.65 771.41H2215.35M2215.35 817.316V771.41M1326.8 326.159H1315.64C1311.94 326.159 1308.94 329.158 1308.94 332.857V332.857C1308.94 336.556 1311.94 339.554 1315.64 339.554H1326.8M1326.8 326.159H1337.97C1341.66 326.159 1344.66 329.158 1344.66 332.857V332.857C1344.66 336.556 1341.66 339.554 1337.97 339.554H1326.8M1326.8 326.159V241.323M1326.8 339.554V415.46M1326.8 241.323C1385.99 241.323 1433.96 193.347 1433.96 134.161C1433.96 129.2 1426.53 128.375 1423.97 132.629C1418.5 141.677 1411.05 149.363 1402.18 155.106C1393.31 160.848 1383.24 164.496 1372.75 165.773C1362.26 167.05 1351.61 165.923 1341.62 162.476C1331.63 159.03 1322.56 153.355 1315.08 145.882C1307.61 138.408 1301.93 129.332 1298.49 119.341C1295.04 109.349 1293.91 98.7042 1295.19 88.2124C1296.47 77.7207 1300.12 67.6571 1305.86 58.7839C1311.6 49.9108 1319.29 42.4608 1328.33 36.9982C1332.59 34.4263 1331.76 27 1326.8 27C1267.62 27 1219.64 74.9762 1219.64 134.161C1219.64 193.347 1267.62 241.323 1326.8 241.323ZM1378.49 87.118L1376.8 86.7251C1374.92 86.3054 1373.98 86.091 1373.22 85.5195C1372.47 84.9479 1371.99 84.0906 1371.03 82.3581L1370.15 80.7864C1366.76 74.6869 1365.06 71.6506 1362.53 71.6506C1359.99 71.6506 1358.29 74.6953 1354.9 80.7846L1354.9 80.7864L1354.02 82.3581C1353.06 84.0906 1352.58 84.9479 1351.83 85.5195C1351.08 86.0937 1350.15 86.3009 1348.32 86.7117M1378.49 87.118L1378.53 87.1265M1378.49 87.118C1378.51 87.1208 1378.52 87.1236 1378.53 87.1265M1383.21 102.273L1382.05 103.63M1383.21 102.273L1383.23 102.249M1383.21 102.273C1383.22 102.265 1383.22 102.257 1383.23 102.249M1382.05 103.63L1381.99 103.7M1382.05 103.63C1382.03 103.654 1382.01 103.677 1381.99 103.7M1379.84 110.703L1380.02 112.516C1380.7 119.526 1381.04 123.036 1378.99 124.59C1376.94 126.144 1373.85 124.724 1367.68 121.884L1366.09 121.152M1379.84 110.703L1379.83 110.626M1379.84 110.703C1379.84 110.677 1379.84 110.652 1379.83 110.626M1366.09 121.152L1365.96 121.093M1366.09 121.152C1366.05 121.132 1366 121.112 1365.96 121.093M1358.96 121.152L1357.37 121.884C1351.2 124.733 1348.11 126.144 1346.06 124.59C1344.01 123.042 1344.35 119.553 1345.02 112.596V112.595M1358.96 121.152L1359.09 121.093M1358.96 121.152C1359.01 121.132 1359.05 121.112 1359.09 121.093M1345.03 112.516L1345.21 110.703M1345.03 112.516L1345.02 112.595M1345.03 112.516C1345.03 112.542 1345.03 112.569 1345.02 112.595M1345.21 110.703L1345.22 110.626M1345.21 110.703C1345.21 110.677 1345.22 110.652 1345.22 110.626M1343 103.63L1341.84 102.273M1343 103.63L1343.01 103.635M1343 103.63C1343.01 103.632 1343.01 103.634 1343.01 103.635M1341.84 102.273L1341.82 102.248M1341.84 102.273C1341.84 102.265 1341.83 102.256 1341.82 102.248M1346.56 87.118L1348.26 86.7251M1346.56 87.118L1346.52 87.1265M1346.56 87.118C1346.55 87.1208 1346.53 87.1237 1346.52 87.1265M1348.26 86.7251L1348.32 86.7117M1348.26 86.7251C1348.28 86.7206 1348.3 86.7161 1348.32 86.7117M1378.53 87.1265C1385.1 88.6122 1388.38 89.3554 1389.17 91.869C1389.95 94.3924 1387.71 97.0137 1383.23 102.249L1383.23 102.249M1381.99 103.7C1380.75 105.145 1380.12 105.877 1379.84 106.792C1379.58 107.651 1379.64 108.563 1379.8 110.271M1379.83 110.626L1379.83 110.624L1379.83 110.621M1365.96 121.093C1364.29 120.328 1363.43 119.937 1362.53 119.937C1361.62 119.937 1360.77 120.328 1359.09 121.093M1345.22 110.626L1345.22 110.624L1345.22 110.621M1343.01 103.635C1344.28 105.123 1344.92 105.873 1345.21 106.792C1345.47 107.651 1345.41 108.563 1345.25 110.271M1341.82 102.248C1337.34 97.0135 1335.1 94.3923 1335.89 91.869C1336.67 89.3554 1339.96 88.6122 1346.52 87.1265M1345.25 110.271C1345.24 110.384 1345.23 110.501 1345.22 110.621M1345.25 110.271L1345.22 110.621M1379.8 110.271C1379.81 110.384 1379.82 110.501 1379.83 110.621M1379.8 110.271L1379.83 110.621M438.044 693.891C455.743 693.891 470.089 679.589 470.089 661.945C470.089 660.466 467.865 660.22 467.099 661.488C465.466 664.186 463.238 666.477 460.584 668.189C457.931 669.901 454.922 670.988 451.785 671.369C448.647 671.75 445.464 671.414 442.476 670.386C439.489 669.359 436.775 667.667 434.54 665.439C432.305 663.211 430.608 660.506 429.578 657.527C428.547 654.549 428.21 651.375 428.592 648.248C428.974 645.12 430.064 642.12 431.781 639.475C433.499 636.83 435.797 634.609 438.503 632.981C439.775 632.214 439.528 630 438.044 630C420.346 630 406 644.302 406 661.945C406 679.589 420.346 693.891 438.044 693.891ZM2215.04 693.891C2232.74 693.891 2247.09 679.589 2247.09 661.945C2247.09 660.466 2244.86 660.22 2244.1 661.488C2242.47 664.186 2240.24 666.477 2237.58 668.189C2234.93 669.901 2231.92 670.988 2228.78 671.369C2225.65 671.75 2222.46 671.414 2219.48 670.386C2216.49 669.359 2213.77 667.667 2211.54 665.439C2209.3 663.211 2207.61 660.506 2206.58 657.527C2205.55 654.549 2205.21 651.375 2205.59 648.248C2205.97 645.12 2207.06 642.12 2208.78 639.475C2210.5 636.83 2212.8 634.609 2215.5 632.981C2216.78 632.214 2216.53 630 2215.04 630C2197.35 630 2183 644.302 2183 661.945C2183 679.589 2197.35 693.891 2215.04 693.891Z" stroke="#C7F4EE" stroke-width="6"/>
</g>
<defs>
<filter id="filter0_f_68_4" x="0" y="0" width="2653.61" height="1697.14" filterUnits="userSpaceOnUse" color-interpolation-filters="sRGB">
<feFlood flood-opacity="0" result="BackgroundImageFix"/>
<feBlend mode="normal" in="SourceGraphic" in2="BackgroundImageFix" result="shape"/>
<feGaussianBlur stdDeviation="0" result="effect1_foregroundBlur_68_4"/>
</filter>
</defs>
</svg>
