<svg width="96" height="96" viewBox="0 0 96 96" fill="none" xmlns="http://www.w3.org/2000/svg">
<path d="M85.2727 28.5638L83.2967 25.1398C81.8047 22.5478 81.0567 21.2518 79.7847 20.7358C78.5167 20.2158 77.0807 20.6278 74.2047 21.4398L69.3247 22.8158C67.4887 23.2398 65.5647 22.9998 63.8927 22.1358L62.5447 21.3598C61.1085 20.4395 60.0041 19.0842 59.3927 17.4918L58.0567 13.4998C57.1767 10.8598 56.7367 9.53983 55.6927 8.78783C54.6487 8.02783 53.2567 8.02783 50.4807 8.02783H46.0207C43.2447 8.02783 41.8567 8.02783 40.8087 8.78783C39.7647 9.53983 39.3287 10.8598 38.4487 13.4998L37.1127 17.4918C36.5002 19.0848 35.3944 20.4401 33.9567 21.3598L32.6087 22.1398C30.9367 22.9998 29.0087 23.2398 27.1767 22.8198L22.2967 21.4398C19.4207 20.6278 17.9847 20.2198 16.7167 20.7358C15.4447 21.2518 14.6967 22.5478 13.2047 25.1358L11.2327 28.5638C9.8327 30.9958 9.1327 32.2078 9.2687 33.4998C9.4047 34.7958 10.3407 35.8358 12.2127 37.9198L16.3367 42.5318C17.3447 43.8078 18.0607 46.0318 18.0607 48.0318C18.0607 50.0318 17.3447 52.2558 16.3407 53.5318L12.2127 58.1398C10.3407 60.2238 9.4047 61.2678 9.2687 62.5598C9.1327 63.8518 9.8287 65.0678 11.2287 67.4958L13.2047 70.9238C14.6967 73.5118 15.4447 74.8078 16.7167 75.3238C17.9887 75.8398 19.4207 75.4358 22.2967 74.6198L27.1767 73.2438C29.0123 72.8237 30.9372 73.0645 32.6127 73.9238L33.9567 74.6998C35.3967 75.6198 36.5007 76.9798 37.1087 78.5718L38.4447 82.5598C39.3247 85.1998 39.7647 86.5198 40.8087 87.2798C41.8567 88.0318 43.2447 88.0318 46.0207 88.0318H50.4807C53.2567 88.0318 54.6487 88.0318 55.6927 87.2758C56.7367 86.5198 57.1767 85.1998 58.0527 82.5598L59.3927 78.5718C60.0007 76.9758 61.1047 75.6198 62.5447 74.6998L63.8887 73.9238C65.5687 73.0638 67.4887 72.8198 69.3287 73.2438L74.2087 74.6198C77.0807 75.4358 78.5167 75.8438 79.7847 75.3278C81.0567 74.8078 81.8047 73.5118 83.2967 70.9238L85.2687 67.4958C86.6687 65.0678 87.3687 63.8558 87.2327 62.5598C87.0967 61.2638 86.1607 60.2238 84.2887 58.1398L80.1647 53.5318C79.1567 52.2518 78.4407 50.0318 78.4407 48.0318C78.4407 46.0318 79.1567 43.8078 80.1607 42.5318L84.2887 37.9198C86.1607 35.8398 87.0967 34.7958 87.2327 33.4998C87.3687 32.2038 86.6727 30.9958 85.2727 28.5638Z" stroke="#B1C2C8" stroke-width="6" stroke-linecap="round" stroke-linejoin="round"/>
<path d="M48 32V48L59.216 54" stroke="#B1C2C8" stroke-width="6" stroke-linecap="round" stroke-linejoin="round"/>
</svg>
