<svg width="771" height="843" viewBox="0 0 771 843" fill="none" xmlns="http://www.w3.org/2000/svg">
<rect x="0.81311" y="0.766357" width="770" height="842" rx="47.8505" fill="#2C8378"/>
<rect x="661.69" y="145.635" width="18.6404" height="360.132" fill="#4ADBC8"/>
<rect x="620.682" y="145.635" width="18.6404" height="360.132" fill="#4ADBC8"/>
<path d="M214.322 420.021H232.962V487.126H255.331V449.845H273.971V487.126H296.339V449.845H314.98V487.126H337.348V449.845H355.989V505.766H337.348H314.98H296.339H273.971H255.331H232.962H214.322V420.021Z" fill="#4ADBC8"/>
<path d="M276.208 420.021H294.848V438.661H276.208V420.021Z" fill="#EDFBFA"/>
<path d="M296.339 390.196H314.98V408.837H296.339V390.196Z" fill="#EDFBFA"/>
<path d="M316.471 420.021H335.111V438.661H316.471V420.021Z" fill="#EDFBFA"/>
<path d="M579.673 386.468H598.313V405.108H579.673V386.468Z" fill="#EDFBFA"/>
<path d="M579.673 416.293H598.313V487.126H620.682V505.766H598.313H579.673V416.293Z" fill="#4ADBC8"/>
<path d="M497.655 487.126H516.296V505.766H497.655V487.126Z" fill="#EDFBFA"/>
<path d="M538.664 449.845H557.304V487.126H579.673V505.766H557.304H538.664V468.486H475.287V505.766H456.646H378.357V386.468H396.997V487.126H456.646V468.486H419.366V449.845H456.646H475.287H538.664Z" fill="#4ADBC8"/>
<path d="M132.304 420.021H150.945H214.322V438.661H150.945V505.766H132.304H109.936H91.2955V386.468H109.936V487.126H132.304V420.021Z" fill="#4ADBC8"/>
<path d="M173.313 457.301H191.953V475.942H173.313V457.301Z" fill="#EDFBFA"/>
<path d="M173.313 487.126H191.953V505.766H173.313V487.126Z" fill="#EDFBFA"/>
<path d="M620.682 134.451C620.682 119.241 632.066 106.691 646.778 104.857C647.999 104.704 649.244 104.626 650.506 104.626C651.769 104.626 653.013 104.704 654.234 104.857C668.946 106.691 680.331 119.241 680.331 134.451H620.682Z" fill="#F7EDF0"/>
<path d="M650.879 91.9506C651.004 91.9506 651.128 91.9464 651.252 91.9383C654.166 91.7465 656.471 89.3217 656.471 86.3584C656.471 86.0995 656.083 86.0565 655.949 86.2785C655.664 86.7506 655.276 87.1517 654.812 87.4514C654.349 87.7511 653.824 87.9414 653.277 88.0081C652.729 88.0747 652.174 88.0159 651.652 87.836C651.131 87.6562 650.657 87.3601 650.267 86.9701C649.877 86.5801 649.581 86.1064 649.401 85.585C649.222 85.0636 649.163 84.5082 649.229 83.9607C649.296 83.4132 649.486 82.888 649.786 82.425C650.086 81.9619 650.487 81.5732 650.959 81.2881C651.181 81.1539 651.138 80.7664 650.879 80.7664C647.79 80.7664 645.287 83.2699 645.287 86.3584C645.287 89.064 647.208 91.3206 649.761 91.8387C649.883 91.8637 650.008 91.8846 650.133 91.9013C650.256 91.9177 650.381 91.9301 650.506 91.9383C650.629 91.9464 650.754 91.9506 650.879 91.9506Z" fill="#F7EDF0"/>
<path d="M650.879 91.9506C650.754 91.9506 650.629 91.9464 650.506 91.9383C650.381 91.9301 650.256 91.9177 650.133 91.9013C650.008 91.8846 649.883 91.8637 649.761 91.8387V98.6611H650.133H650.506H650.879H651.252V91.9383C651.128 91.9464 651.004 91.9506 650.879 91.9506Z" fill="#4ADBC8"/>
<path d="M648.269 98.6611C647.446 98.6611 646.778 99.3287 646.778 100.152V104.857H654.234V100.152C654.234 99.3287 653.567 98.6611 652.743 98.6611H651.252H650.879H650.506H650.133H649.761H648.269Z" fill="#4ADBC8"/>
<path fill-rule="evenodd" clip-rule="evenodd" d="M188.157 308.179C204.743 258.904 257.854 164.201 317.857 145.948C326.522 143.109 335.576 141.6 344.928 141.6C354.279 141.6 363.381 143.109 372.046 145.948C426.617 161.979 482.319 257.966 501.314 308.179H481.961C459.969 257.702 414.579 178.771 370.231 164.589C362.272 161.749 353.911 160.24 345.321 160.24C336.731 160.24 328.413 161.749 320.454 164.589C271.801 180.7 228.081 258.585 208.014 308.179H188.157Z" fill="#4ADBC8"/>
<path d="M505.111 319.363H486.471V349.187H505.111V319.363Z" fill="#F7EDF0"/>
<path d="M467.831 349.187V319.363H449.19V349.187H467.831Z" fill="#F7EDF0"/>
<path d="M430.55 349.187V319.363H411.91V349.187H430.55Z" fill="#F7EDF0"/>
<path d="M326.164 349.187H344.804V367.828H326.164V349.187Z" fill="#F7EDF0"/>
<path fill-rule="evenodd" clip-rule="evenodd" d="M121.12 289.538L162.129 319.363V338.003V349.187H281.427V338.003H184.497V319.363H281.427L322.436 289.538H348.532L389.541 319.363V349.187H411.91H430.55H449.19H467.831H486.471H505.111H527.48V319.363L568.489 289.538H598.313V367.828H527.48H370.901V325.328L345.55 308.179H325.418L300.067 325.328V367.828H162.129H91.2955V349.187H109.936H121.12H143.489V325.328L118.138 308.179H109.936V289.538H121.12ZM571.471 308.179L546.12 325.328V349.187H579.673V308.179H571.471Z" fill="#F7EDF0"/>
<path d="M345.177 109.472C345.427 109.472 345.676 109.465 345.923 109.452C346.173 109.439 346.422 109.42 346.668 109.394C353.792 108.645 359.344 102.592 359.344 95.2359C359.344 94.5768 358.361 94.4671 358.022 95.0323C357.3 96.2343 356.315 97.2554 355.142 98.0183C353.969 98.7811 352.639 99.2657 351.252 99.4353C349.865 99.605 348.457 99.4553 347.137 98.9974C345.816 98.5396 344.616 97.7857 343.628 96.7929C342.64 95.8001 341.89 94.5943 341.434 93.267C340.978 91.9397 340.829 90.5256 340.998 89.1318C341.167 87.738 341.649 86.4011 342.408 85.2223C343.167 84.0436 344.184 83.0539 345.38 82.3282C345.942 81.9866 345.833 81 345.177 81C337.353 81 331.01 87.3734 331.01 95.2359C331.01 102.592 336.563 108.645 343.686 109.394C343.933 109.42 344.181 109.439 344.432 109.452C344.678 109.465 344.927 109.472 345.177 109.472Z" fill="#F7EDF0"/>
<path d="M345.177 109.472C344.927 109.472 344.678 109.465 344.432 109.452V121.679H345.923V109.452C345.676 109.465 345.427 109.472 345.177 109.472Z" fill="#4ADBC8"/>
<path d="M342.351 121.679C340.716 121.679 339.39 123.015 339.39 124.663C339.39 126.312 340.716 127.648 342.351 127.648H343.686H344.432H345.923H346.668H348.273C349.908 127.648 351.234 126.312 351.234 124.663C351.234 123.015 349.908 121.679 348.273 121.679H346.668H345.923H344.432H343.686H342.351Z" fill="#F7EDF0"/>
<path d="M345.923 127.648H344.432V141.649H345.923L345.923 127.648Z" fill="#4ADBC8"/>
<path d="M345.923 127.648L345.923 141.649H346.668V127.648H345.923Z" fill="#4ADBC8"/>
<path d="M344.432 141.649V127.648H343.686V141.649H344.432Z" fill="#4ADBC8"/>
<path d="M344.432 121.679V109.452C344.181 109.439 343.933 109.42 343.686 109.394V121.679H344.432Z" fill="#4ADBC8"/>
<path d="M345.923 109.452V121.679H346.668V109.394C346.422 109.42 346.173 109.439 345.923 109.452Z" fill="#4ADBC8"/>
<path d="M118.902 575.627C125.091 575.627 130.482 576.84 135.076 579.264C139.669 581.688 143.242 585.261 145.794 589.982C148.346 594.704 149.622 600.414 149.622 607.113V643.766H134.119V627.689H103.494V643.766H88.1821V607.113C88.1821 600.414 89.4581 594.704 92.0101 589.982C94.5621 585.261 98.135 581.688 102.729 579.264C107.322 576.84 112.713 575.627 118.902 575.627ZM134.119 615.247V605.677C134.119 600.127 132.747 595.948 130.003 593.141C127.26 590.27 123.528 588.834 118.806 588.834C114.021 588.834 110.257 590.27 107.514 593.141C104.834 595.948 103.494 600.127 103.494 605.677V615.247H134.119ZM192.869 644.532C187.063 644.532 182.533 643.001 179.28 639.938C176.026 636.812 174.399 632.41 174.399 626.732V572.756H189.328V625.87C189.328 628.04 189.871 629.73 190.955 630.942C192.104 632.091 193.699 632.665 195.74 632.665C196.506 632.665 197.271 632.569 198.037 632.378C198.866 632.187 199.504 631.963 199.951 631.708L200.621 643.288C198.133 644.117 195.549 644.532 192.869 644.532ZM292.665 575.627C300.64 575.627 306.861 578.147 311.327 583.188C315.793 588.164 318.026 595.278 318.026 604.529V643.766H302.522V605.007C302.522 599.648 301.246 595.629 298.694 592.949C296.206 590.206 292.729 588.834 288.263 588.834C283.542 588.834 279.745 590.301 276.874 593.236C274.067 596.107 272.664 600.382 272.664 606.06V643.766H257.16V576.776H272.185V584.91C274.482 581.848 277.353 579.551 280.798 578.02C284.243 576.425 288.199 575.627 292.665 575.627ZM368.738 632.569C371.417 632.569 373.778 632.187 375.819 631.421C377.925 630.592 379.871 629.316 381.657 627.593L389.6 636.206C384.752 641.757 377.67 644.532 368.355 644.532C362.549 644.532 357.413 643.415 352.947 641.182C348.481 638.886 345.036 635.727 342.611 631.708C340.187 627.689 338.975 623.127 338.975 618.023C338.975 612.983 340.155 608.453 342.516 604.433C344.94 600.35 348.226 597.192 352.373 594.959C356.584 592.662 361.305 591.514 366.536 591.514C371.449 591.514 375.915 592.566 379.935 594.672C383.954 596.713 387.144 599.712 389.505 603.668C391.929 607.56 393.141 612.185 393.141 617.544L355.052 624.913C356.137 627.465 357.828 629.379 360.125 630.655C362.485 631.931 365.356 632.569 368.738 632.569ZM366.536 602.806C362.772 602.806 359.71 604.019 357.349 606.443C354.989 608.867 353.744 612.217 353.617 616.492L378.691 611.611C377.989 608.931 376.553 606.794 374.384 605.199C372.215 603.604 369.599 602.806 366.536 602.806ZM409.876 663.098C404.644 663.098 400.656 662.141 397.913 660.227L401.932 649.413C403.655 650.625 405.76 651.231 408.249 651.231C410.163 651.231 411.662 650.593 412.747 649.317C413.831 648.105 414.373 646.255 414.373 643.766V592.279H429.303V643.671C429.303 649.668 427.58 654.389 424.135 657.834C420.754 661.343 416 663.098 409.876 663.098ZM421.838 585.102C419.095 585.102 416.862 584.304 415.139 582.709C413.416 581.114 412.555 579.136 412.555 576.776C412.555 574.415 413.416 572.437 415.139 570.842C416.862 569.247 419.095 568.45 421.838 568.45C424.582 568.45 426.815 569.215 428.537 570.747C430.26 572.278 431.121 574.192 431.121 576.489C431.121 578.977 430.26 581.05 428.537 582.709C426.815 584.304 424.582 585.102 421.838 585.102ZM505.829 592.279V643.766H491.57V637.833C487.869 642.299 482.51 644.532 475.492 644.532C470.643 644.532 466.241 643.447 462.285 641.278C458.393 639.109 455.331 636.015 453.098 631.995C450.865 627.976 449.748 623.318 449.748 618.023C449.748 612.727 450.865 608.07 453.098 604.05C455.331 600.031 458.393 596.937 462.285 594.767C466.241 592.598 470.643 591.514 475.492 591.514C482.063 591.514 487.199 593.587 490.9 597.734V592.279H505.829ZM478.076 632.282C481.84 632.282 484.966 631.006 487.455 628.454C489.943 625.838 491.187 622.361 491.187 618.023C491.187 613.684 489.943 610.239 487.455 607.687C484.966 605.071 481.84 603.763 478.076 603.763C474.248 603.763 471.09 605.071 468.602 607.687C466.113 610.239 464.869 613.684 464.869 618.023C464.869 622.361 466.113 625.838 468.602 628.454C471.09 631.006 474.248 632.282 478.076 632.282ZM547.5 644.532C543.226 644.532 539.047 644.022 534.963 643.001C530.88 641.916 527.626 640.576 525.202 638.981L530.178 628.263C532.475 629.73 535.25 630.942 538.504 631.899C541.758 632.793 544.948 633.239 548.074 633.239C554.391 633.239 557.549 631.676 557.549 628.55C557.549 627.082 556.688 626.03 554.965 625.392C553.242 624.754 550.595 624.211 547.022 623.765C542.811 623.127 539.334 622.393 536.59 621.564C533.847 620.734 531.454 619.267 529.413 617.161C527.435 615.056 526.446 612.057 526.446 608.166C526.446 604.912 527.371 602.041 529.221 599.553C531.135 597 533.879 595.023 537.452 593.619C541.088 592.215 545.363 591.514 550.276 591.514C553.912 591.514 557.517 591.928 561.09 592.758C564.726 593.523 567.725 594.608 570.086 596.012L565.109 606.634C560.579 604.082 555.635 602.806 550.276 602.806C547.086 602.806 544.693 603.253 543.098 604.146C541.503 605.039 540.705 606.188 540.705 607.591C540.705 609.186 541.567 610.303 543.289 610.941C545.012 611.579 547.755 612.185 551.52 612.759C555.73 613.461 559.176 614.227 561.855 615.056C564.535 615.822 566.864 617.257 568.842 619.363C570.819 621.468 571.808 624.403 571.808 628.167C571.808 631.357 570.851 634.196 568.937 636.684C567.023 639.173 564.216 641.119 560.516 642.522C556.879 643.862 552.54 644.532 547.5 644.532ZM622.841 591.514C629.221 591.514 634.357 593.428 638.249 597.256C642.204 601.084 644.182 606.762 644.182 614.29V643.766H629.253V616.587C629.253 612.504 628.36 609.474 626.573 607.496C624.787 605.454 622.203 604.433 618.821 604.433C615.057 604.433 612.058 605.614 609.825 607.974C607.592 610.271 606.476 613.716 606.476 618.31V643.766H591.547V572.756H606.476V597.639C608.454 595.661 610.846 594.161 613.653 593.141C616.461 592.056 619.523 591.514 622.841 591.514ZM668.242 592.279H683.171V643.766H668.242V592.279ZM675.707 585.102C672.963 585.102 670.73 584.304 669.008 582.709C667.285 581.114 666.424 579.136 666.424 576.776C666.424 574.415 667.285 572.437 669.008 570.842C670.73 569.247 672.963 568.45 675.707 568.45C678.45 568.45 680.683 569.215 682.406 570.747C684.128 572.278 684.99 574.192 684.99 576.489C684.99 578.977 684.128 581.05 682.406 582.709C680.683 584.304 678.45 585.102 675.707 585.102Z" fill="#EDFBFA"/>
<rect x="80.8131" y="725.257" width="5.9813" height="185.075" transform="rotate(-90 80.8131 725.257)" fill="#C7F4EE"/>
<path d="M327.442 741.766V712.59L314.845 735.037H311.884L299.234 712.59V741.766H294.389V703.546H299.503L313.338 728.362L327.226 703.546H332.286V741.766H327.442ZM367.386 737.46V741.766H341.439V703.546H366.901V707.852H346.284V720.234H364.21V724.271H346.284V737.46H367.386ZM396.48 711.567C396.05 711.064 395.475 710.58 394.758 710.113C394.04 709.647 393.233 709.234 392.335 708.875C391.438 708.48 390.451 708.175 389.375 707.96C388.334 707.709 387.239 707.583 386.091 707.583C383.148 707.583 380.977 708.139 379.577 709.252C378.178 710.364 377.478 711.89 377.478 713.828C377.478 715.191 377.837 716.268 378.554 717.058C379.272 717.847 380.367 718.493 381.838 718.996C383.345 719.498 385.247 720.018 387.544 720.557C390.2 721.131 392.497 721.831 394.435 722.656C396.373 723.481 397.862 724.594 398.903 725.994C399.944 727.357 400.464 729.188 400.464 731.484C400.464 733.315 400.105 734.912 399.387 736.276C398.705 737.603 397.736 738.716 396.48 739.613C395.224 740.474 393.753 741.12 392.066 741.551C390.379 741.946 388.549 742.143 386.575 742.143C384.637 742.143 382.735 741.946 380.869 741.551C379.039 741.12 377.298 740.51 375.647 739.721C373.997 738.931 372.453 737.944 371.018 736.76L373.333 732.669C373.907 733.279 374.643 733.889 375.54 734.499C376.473 735.073 377.514 735.612 378.662 736.114C379.846 736.616 381.12 737.029 382.484 737.352C383.848 737.639 385.247 737.783 386.683 737.783C389.41 737.783 391.528 737.298 393.035 736.329C394.542 735.324 395.296 733.871 395.296 731.969C395.296 730.533 394.865 729.385 394.004 728.524C393.179 727.662 391.941 726.945 390.29 726.37C388.639 725.796 386.629 725.222 384.261 724.648C381.677 724.002 379.505 723.302 377.747 722.548C375.988 721.759 374.661 720.736 373.763 719.48C372.902 718.224 372.471 716.591 372.471 714.581C372.471 712.141 373.064 710.077 374.248 708.391C375.432 706.704 377.065 705.43 379.147 704.569C381.228 703.707 383.579 703.277 386.198 703.277C387.921 703.277 389.518 703.456 390.99 703.815C392.497 704.174 393.896 704.676 395.188 705.322C396.48 705.968 397.665 706.74 398.741 707.637L396.48 711.567ZM404.145 736.06C404.827 736.527 405.76 736.975 406.944 737.406C408.164 737.801 409.6 737.998 411.25 737.998C412.937 737.998 414.319 737.729 415.395 737.191C416.472 736.616 417.298 735.773 417.872 734.661C418.446 733.512 418.841 732.059 419.056 730.3C419.271 728.542 419.379 726.46 419.379 724.056V703.546H424.224V722.979C424.224 725.814 424.08 728.416 423.793 730.785C423.506 733.153 422.932 735.217 422.071 736.975C421.209 738.698 419.917 740.026 418.195 740.959C416.508 741.892 414.247 742.359 411.412 742.359C409.618 742.359 408.038 742.161 406.675 741.766C405.311 741.372 404.055 740.779 402.907 739.99L404.145 736.06ZM432.964 741.766V703.546H437.808V741.766H432.964ZM446.947 741.766V703.546H460.19C464.281 703.546 467.69 704.407 470.418 706.13C473.181 707.816 475.245 710.113 476.609 713.02C477.972 715.891 478.654 719.085 478.654 722.602C478.654 726.478 477.9 729.852 476.393 732.723C474.886 735.594 472.751 737.819 469.987 739.398C467.224 740.977 463.958 741.766 460.19 741.766H446.947ZM473.755 722.602C473.755 719.731 473.217 717.183 472.14 714.958C471.1 712.733 469.575 710.993 467.565 709.736C465.555 708.48 463.097 707.852 460.19 707.852H451.792V737.46H460.19C463.133 737.46 465.609 736.814 467.619 735.522C469.628 734.194 471.154 732.418 472.194 730.193C473.235 727.932 473.755 725.401 473.755 722.602Z" fill="#EDFBFA"/>
<rect x="505.738" y="725.257" width="5.9813" height="185.075" transform="rotate(-90 505.738 725.257)" fill="#C7F4EE"/>
</svg>
